<svg xmlns="http://www.w3.org/2000/svg" width="17" height="20" viewBox="0 0 17 20">
  <path fill="none" stroke="#979797" stroke-width=".8" d="M1141.12892,744.121466 C1142.99912,744.995527 1144.24663,746.889451 1144.24666,749.018535 C1144.24666,749.622156 1144.15642,750.198046 1143.97764,750.729879 C1143.82535,751.182807 1143.40085,751.482277 1142.92984,751.482277 C1142.81129,751.482277 1142.69296,751.463141 1142.5789,751.425005 C1141.99995,751.231626 1141.68751,750.606145 1141.88185,750.028065 C1141.98374,749.724962 1142.03602,749.385361 1142.03602,749.018535 C1142.03602,747.256021 1140.60601,745.82191 1138.84966,745.82191 L1133.23182,745.82191 C1132.62164,745.82191 1132.12651,745.328312 1132.12651,744.718785 C1132.12651,744.109258 1132.62164,743.61566 1133.23182,743.61566 L1137.16647,743.619622 C1137.22047,743.611966 1137.27056,743.607785 1137.32257,743.607785 C1138.54545,743.607785 1139.64689,742.837208 1140.0617,741.692113 C1140.17573,741.377319 1140.23355,741.04616 1140.23355,740.707 C1140.23355,739.108152 1138.92761,737.80625 1137.32257,737.80625 L1130.81061,737.80625 L1130.81061,752.19375 L1138.84966,752.19375 C1139.37026,752.19375 1139.88004,752.090789 1140.27814,751.90803 C1140.83225,751.653469 1141.48834,751.895162 1141.74391,752.448327 C1141.99971,753.002074 1141.75678,753.657667 1141.20203,753.912329 C1140.51437,754.228012 1139.68131,754.4 1138.84966,754.4 L1129.7053,754.4 C1129.09513,754.4 1128.6,753.906402 1128.6,753.296875 L1128.6,736.703125 C1128.6,736.093598 1129.09513,735.6 1129.7053,735.6 L1137.32257,735.6 C1140.14669,735.6 1142.44415,737.890355 1142.44419,740.707 C1142.44419,741.302241 1142.34203,741.886351 1142.14062,742.442255 C1141.91457,743.066223 1141.56978,743.634767 1141.12892,744.121466 Z" transform="translate(-1128 -735)"/>
</svg>
