<svg xmlns="http://www.w3.org/2000/svg" viewBox="0 0 750 554"><defs><style>.cls-1{fill:#fff;}.cls-2{fill:#fceeda;}.cls-3{fill:#ab4d22;}.cls-4{fill:#70280b;}.cls-5{fill:#5b2c0c;}.cls-6{fill:#f2d6b6;}.cls-7{fill:#6b5441;}.cls-8{fill:#47372b;}.cls-9{fill:#858585;}.cls-10{fill:#777;}.cls-11{fill:#5a5a5a;}.cls-12{fill:#2d2d2d;}.cls-13{fill:#f0d5c7;}.cls-14{fill:#f5d4d7;}.cls-15{fill:#d6d6d6;}.cls-16{fill:#f7e2c9;}.cls-17{fill:#6d6d6d;}.cls-18{fill:#f4f4f4;}.cls-19{font-size:48px;font-family:DFWaWaSC-W5-GBpc-EUC-H, Wawati SC;}.cls-20{font-size:36px;}.cls-21{fill:none;stroke:#000;stroke-linecap:round;stroke-linejoin:round;stroke-width:2px;}</style></defs><title>小黑和小白-1</title><g id="图层_3" data-name="图层 3"><path class="cls-1" d="M468.05,321.53c-4.17-7-11.15-13-16.57-19a5.55,5.55,0,0,0-.62-.58A148.47,148.47,0,0,1,448.2,283a4.92,4.92,0,0,0-2.05-3.76c.08-1.08.14-2.16.16-3.25a5,5,0,0,0-10,0c0,.6,0,1.19-.06,1.79a5.31,5.31,0,0,0-.86,1c-2.72,4-2.95,8.57-2.34,13.12-4.5,1.13-7.73,4.72-9.47,9.16a9,9,0,0,1-4.11,3.41c-5.42,1.72-10.55,1.95-15.65,4.89-4.9,2.82-9.2,6.87-13.6,10.4l-9.49,7.64-1.6-.08a11.81,11.81,0,0,0-8.25-3,71.62,71.62,0,0,0-20.57,3.64,13.87,13.87,0,0,0-6.85,5,11.27,11.27,0,0,0-8.58-.63,78.78,78.78,0,0,0-12.34,5.19,12.1,12.1,0,0,0-2.67-8.29c-3.73-4.68-11.41-7.16-16.77-3.35-.85.61-1.69,1.22-2.52,1.84-.71-4.45-1.27-8.92-1.64-13.42-1.17-14.36-1.94-27.58-6.43-42.52A50.37,50.37,0,0,0,263,244.63c-12.32-4.46-31.65-.84-34.64,14.55a14.69,14.69,0,0,0,2,11,11.44,11.44,0,0,0,8.77,8.06c2.5.62,4.92,1.26,7.24,2a8.13,8.13,0,0,1,5.24,0c4.42,1.35,8.93,2.7,12.4,5.92s5.17,7.9,6.41,12.55c2.82,10.63,4.72,21.09,6.54,31.94.45,2.67,2.9,5.51,3.15,8.19.14,1.51.09,1,.35,2.86a48.85,48.85,0,0,1,.7,10.79,123.11,123.11,0,0,0-9.61,13.75l-.55.83a1.94,1.94,0,0,1,0,.24c0,5,.12,9.78-1,14.66-.38,1.68.12,2.64-1.08,3.68.32,3.56-.5,7.53-.17,11.06.53,5.64,3.73,10.29,4.17,15.94,1.47,18.91,1.93,39.33,15.2,53.73a45.51,45.51,0,0,0,4.62,14.73c2.19,4.2,11.74,3.53,11.18-1.46-7-7-4.33-14.82-6.29-21.52a34.84,34.84,0,0,1,1.18-7.06c1.51-5.47,6.28-14.08,13.11-14.42.12.68.51-1,.62-.33-.07,9-1.64,17.37-4,26.36a28.48,28.48,0,0,0-.94,6.7,8.42,8.42,0,0,1,3-1.48c4.25-1.16,11.41,9.93,12,11.78.05.15.11.35.17.56a9.73,9.73,0,0,1,1.65-.15,8.84,8.84,0,0,1,3.37.63c2.29.35,3.16,1.91,4.13-.19s1.89-5.61,2.92-8.2a9.19,9.19,0,0,1,12.61-5.19l.68-.22c.22-.68.43-1.36.66-2a13.12,13.12,0,0,0,2.89-.29c1.08-.24,2.13-.54,3.17-.87a11.31,11.31,0,0,0,.53,3.05c3.3.92,4.81,3.66,6.54,6.87,1.55,2.88,3.25,5.67,3.44,8.87.11,1.84-.21,2,.31,3.52a8.12,8.12,0,0,1,4.43,5.76,13.85,13.85,0,0,0,7.15,1.79,9.63,9.63,0,0,1,2.15.24,7.74,7.74,0,0,1,2.23-1.6c0-.09,0-.17-.07-.26-.11-.36-1.33-3.47-.51-1.59a12.06,12.06,0,0,1-.94-3.34,9.91,9.91,0,0,1-.27-7.81c0-.2,0-.39,0-.58a12.34,12.34,0,0,1,.36-1.89c-.76-3.52.42-7.54,3.54-9.55l.33-6.07a11.14,11.14,0,0,0-2.8-8.15,10.29,10.29,0,0,0-.44-1.78,22.62,22.62,0,0,1,1.76-1.91,11.43,11.43,0,0,0,3.63-2.86,26.19,26.19,0,0,1,7-3,27,27,0,0,1,2.94-.62,12.86,12.86,0,0,0,5.29,4.62c.37,2.68.75,5.35,1.12,8q1,6.92,1.94,13.82l-.68.23a9.56,9.56,0,0,1,1,3.84,9.91,9.91,0,0,1,.75,5.36c.09.13.19.25.28.39a42.26,42.26,0,0,1,3.24,6.18c.46,1,.92,2,1.45,2.9.32.58,2,2.91,1.21,2a10,10,0,0,1,.86,1.19,8.28,8.28,0,0,1,2.5.7,9.29,9.29,0,0,1,2.3-.28,8.79,8.79,0,0,1,3.8.8,5.52,5.52,0,0,0,2.1-2.77l1.44-.63a9.11,9.11,0,0,1-2.74-7.34,13.43,13.43,0,0,1,1.37-8.58,7,7,0,0,1,1.85-2.28,17,17,0,0,1-1-1.95,20,20,0,0,1-.4-14,8.86,8.86,0,0,1,10.73-6.1,6.72,6.72,0,0,1,1,.35q-3.18-15.12-7-30.11a109.47,109.47,0,0,1,5.44-14.92,96.21,96.21,0,0,1,4.51-8.6,10.11,10.11,0,0,0,5.06-5A163.75,163.75,0,0,1,452,374.58c3.5-3.61,7.38-6.9,10.47-10.88a43,43,0,0,0,8.6-20.54C472.05,336.18,471.77,327.74,468.05,321.53Z"/><path class="cls-2" d="M292.8,403.58c-5.38-4-3.65-11.81-2.95-17.8a93.66,93.66,0,0,0,.94-14.22,4,4,0,0,0,1.22-1.17l.66-1a3.52,3.52,0,0,0-1.25-4.79,3.57,3.57,0,0,0-2.49-.36,3.68,3.68,0,0,0-3.68.39c.1-4.1-6.51-4-7,.35a188.67,188.67,0,0,0-1.54,29.95,34.05,34.05,0,0,0,2,10.78c1.38,3.58,6,7.15,3.33,10.83-1.35,1.89-.08,4.12,1.74,4.94a2.43,2.43,0,0,1,4.61.27c3.64-.72,5.46-3.73,7-7.17C297.64,409.42,297.13,406.77,292.8,403.58Z"/><path class="cls-2" d="M273.14,446.77c-2.73-3.65-5.53-7.25-8.36-10.82a2.72,2.72,0,0,0-1.56-.92,3.09,3.09,0,0,0-3.53-1.3,3.92,3.92,0,0,0,.29-2.5,21.49,21.49,0,0,0-2.69-6.58,3.5,3.5,0,0,0-3.06-1.66c.19-3.34-4.67-5.64-6.44-2.09-5.37,10.75-15.81,14.15-26.26,18.5l-33.24,13.85c-3,1.24-3.66,5.78,0,6.75,10,2.65,20.07-.44,29.36-4.72q-2.67,2.1-5.22,4.32l-1.72.42a3,3,0,0,0-1.49.84L209,461A105.27,105.27,0,0,0,196,467.29c-4,2.3-.49,7.92,3.53,6,1.71-.79,3.77-.63,5.73-.77a3.47,3.47,0,0,0,1.87.56c5.71.08,11.5.14,17.28,0a2.46,2.46,0,0,1,1.85-2,109.07,109.07,0,0,1,25.63-2.86c3.73-1.71,7.71-1.9,11.76-1.91a54.63,54.63,0,0,0,5.33-2.16l.51-.08a6.44,6.44,0,0,0,2.81.14,4.41,4.41,0,0,0,2.7-2.6c.32-.22.63-.44.94-.68a2.78,2.78,0,0,0,.88-3.46,6,6,0,0,0,.29-.77C278.19,452.84,275.25,449.58,273.14,446.77Z"/><path class="cls-3" d="M524.65,401.72a232.06,232.06,0,0,0-8.81-47,138.8,138.8,0,0,0-11.52-28.11c-4.62-8.16-11-17.35-19.23-22.25a14.34,14.34,0,0,0-10.49-1.9,7.19,7.19,0,0,0-7,1.86,5.69,5.69,0,0,0-.6.7c-4.65-.28-6.63,4.16-5.86,8.5a2.17,2.17,0,0,1,3,1c1.46,2.92,2.9,5.83,4.09,8.8a20.76,20.76,0,0,0,3.17,4.31c3.62,10.66,1.82,21.93-5.65,30.45a2.28,2.28,0,0,1-1.18.75c-1.68,3.14-3.91,5.88-7.3,7.16-3.63,5.89-8,11.2-12.09,16.71,0,.21,0,.43-.09.65a61.45,61.45,0,0,1-7.43,17c-.86,1.45-1.36,3.18-2.7,3.18-.55,1.48-1.91,1.84-2.37,3.35a2.72,2.72,0,0,1-.34,1c-.63,1.12-.59,4.47-1.29,5.66-.13.41.44.78.55.71.29.74-.51,1.13-.55,1.29-.28,1.12-2,.61-2.35,1.72a7.28,7.28,0,0,0,12.8,1.13c.64-.13,1.27-.31,1.89-.46.86,1.22,1.76,2.88,2.28,3.54a62,62,0,0,0,4.9,5.6A103.93,103.93,0,0,0,462,436.78c8.26,6.18,16.93,12.65,26.85,15.87,4.86,1.58,10-.78,15.11-1a25.41,25.41,0,0,1,4.62.34,4,4,0,0,1,2.38-.62,8.5,8.5,0,0,0,2.44-.64,33,33,0,0,0,3.66-1.84,30.85,30.85,0,0,0,6.21-4.27l.33-.28v0a2.5,2.5,0,0,1,1.75-2.36c.07-1,.12-2,.16-3,0-.65,0-1.3.05-2a24,24,0,0,0,2.17-6.81C529.29,420.93,527,411,524.65,401.72Z"/><path class="cls-3" d="M351.23,319.29a79.77,79.77,0,0,0-25.56-5.58,6.45,6.45,0,0,0-5.55,2.2,7.36,7.36,0,0,0-4,.89,79.72,79.72,0,0,0-11.62,7.72,6.53,6.53,0,0,0-4.33,2.17q-6.58,7.11-13.16,14.24a7.19,7.19,0,0,0-2,5.91c-1,1.25-2,2.5-3,3.73a7.76,7.76,0,0,0-.5.67,5,5,0,0,0-.48.32c-.76,2.57-1.05,5.28-2,7.77a4,4,0,0,1-.44.79,8,8,0,0,0,1.39,3,9.55,9.55,0,0,0,.6,1.7,2.2,2.2,0,0,1,3.22-.53c.79.56,1.57,1.1,2.37,1.57a11.27,11.27,0,0,1,5.17,2.18,1.84,1.84,0,0,1,.45.55l.07,0c3-.65,5-3.59,5.38-6.63,5.67-4.41,10.08-11.68,15.49-15.77,3.58-2.71,4.3-5.89,8.4-7.58-.08-1.14,3.62-1.38,5-1.9a52,52,0,0,1,5.05-1.61c19-4.49,13-2.49,18-4.49,4.64-1.86,4.83-2,5-2,1.72-1.05,2,1.68,2.47-.12C357.65,324.23,355,320.81,351.23,319.29Z"/><path class="cls-4" d="M346.5,321.57c-8.45-.78-16.06-7.35-24.45-6.12C314,316.63,305,319.63,308,322.63c8.9,3.61,29.45,9.12,39,10C354.69,333.34,354.14,322.28,346.5,321.57Z"/><path class="cls-2" d="M434.67,269.36c-.27-5.21-4.82-8.72-9.82-8.94-6.06-.28-10.83,3.23-16.32,5.07-5.86,2-12.25.79-18.17,2.42a13.42,13.42,0,0,0-1.55.54,43.52,43.52,0,0,0-7.17-3.27c-4.78-2-9.73-3.51-14.38-5.76a70.91,70.91,0,0,1-23.39-18.28,5.36,5.36,0,0,0-3.68-1.95l-.7-3.35c-.87-4.17-5.42-5.37-8.85-4.16-.43-3.38-1-6.76-1.71-10.12-1.68-8.19-14.21-4.73-12.53,3.45a85.6,85.6,0,0,1,1.71,14.27c-3.08,3.76-2.73,9.51-3.21,14.51a5.27,5.27,0,0,0,1.87,4.92c-.17,1-.34,2-.52,3.06-2.11,11.56-3.86,24.2-2.25,35.86,2.21,16,15.23,24.81,29,29.35a2.5,2.5,0,0,1,2.67-.91,67.54,67.54,0,0,0,7.62,1.23,2.75,2.75,0,0,1,2.65,2.57c2.33.3,4.71-1.34,7-1.24,5.88.26,11.19-1.1,17-2,5.33-.83,16.68-3.53,21-7,4.05-3.26.45-3.32,2.55-7.86a41,41,0,0,1,8-11.13c6.28-6.55,13.37-12.27,18.51-19.85C432.17,277.67,434.88,273.29,434.67,269.36Z"/><path class="cls-5" d="M356,329.55a12.86,12.86,0,0,0-2.77-.17,4.17,4.17,0,0,0-1.39.34c.93.1,1.85.22,2.77.35A4,4,0,0,1,356,329.55Z"/><path class="cls-6" d="M365.88,250a71.64,71.64,0,0,1-34.26-30.58c-3.85-6.69-14.22-.65-10.36,6.06a84.79,84.79,0,0,0,41.43,36.09c3,1.26,6.56-1.36,7.38-4.19C371.06,253.91,368.85,251.21,365.88,250Z"/><path class="cls-5" d="M353.69,335.26c-.89-.13-1.79-.24-2.69-.31a2.9,2.9,0,0,1-.6-.11,3.22,3.22,0,0,0,2.85,1.54,9,9,0,0,1,1.27,0A5.36,5.36,0,0,1,353.69,335.26Z"/><path class="cls-5" d="M358.64,339.32a4.14,4.14,0,0,1-.79-1.53,4.85,4.85,0,0,1-1.16-.13,5.3,5.3,0,0,0,3.23,3A11.23,11.23,0,0,1,358.64,339.32Z"/><path class="cls-5" d="M408.63,319.94l-1-.18c-.4.32-1.93-1.13-2.59-1.13-1.65,0-2.32,1.64-4,1.89a3.39,3.39,0,0,1-1.68-.14,9.51,9.51,0,0,0-1.3.68,3.37,3.37,0,0,0-1.06-.18h-2.81a2,2,0,0,1-.52.38c-.53.26-1.09.48-1.64.7a4.55,4.55,0,0,1-.51.21l-.18.09a3.07,3.07,0,0,1-1.79.28l-.12.17a19.35,19.35,0,0,0-5.75,2,3.37,3.37,0,0,0-1.43-.32H381a3.63,3.63,0,0,0-3.27,2.24c-2.59-.09-5.31.27-7.48.32a6,6,0,0,0-2.93.79l.35-.05.92,0,.41,0c8,.67,21.41,8.29,12.69,16.59a4,4,0,0,1-4.15,1,4.5,4.5,0,0,1-.68.19,5.56,5.56,0,0,0,1.66.28,3.33,3.33,0,0,0,2,.6,3.22,3.22,0,0,0,3.29-2.69,5,5,0,0,0,1.57-1.29c1.6-2.08,1-5,1.17-7.39.07-1.33.15-3.54.76-4.25a5.17,5.17,0,0,1,2.16-.9c1.59,1.59,3.27,2.51,6,1.38,4.32-1.8,5.81-5.65,11.33-4.55C411.17,327.58,413.05,320.83,408.63,319.94Z"/><path class="cls-7" d="M577.82,402.67c-1.1-1.25-2.22-2.49-3.4-3.67a27,27,0,0,0-3.25-2.74c-2.21-1.26-4.44-2.48-6.53-3.94l-.53-.29A12.18,12.18,0,0,1,559,387a26,26,0,0,1-3.06-5.71c-1.11-2.77-1.88-5.73-3.15-8.43-1.62-2.55-3.39-5-4.89-7.63-1.62-1.18-3.06-2.72-4.61-3.92a3.17,3.17,0,0,1-1.31-2.17,17.3,17.3,0,0,1-2.92-2.39,75.09,75.09,0,0,1-11.6-17.48l-.37-.39a4.79,4.79,0,0,1-1.38-3.23c-.08-.21-.17-.42-.24-.64a4.59,4.59,0,0,1-.21-1.73,93.52,93.52,0,0,0-11.67-21c-5.1-6.85-10.87-13.16-16.59-19.49-5.53-6.12-11.05-12.25-16.68-18.28s-11.3-12.13-16.58-18.52a128.09,128.09,0,0,1-14.27-20.25c-3.94-7.27-6.4-15.25-10.43-22.48A34.69,34.69,0,0,0,425,198.85c-6.17-3.19-12.95-4-19.79-4.19-9.29-.21-18.58-.2-27.87-.2-4.68,0-9.37,0-14.05,0-4.39,0-8.78-.2-13.17,0a62.71,62.71,0,0,0-6.56.61,12.78,12.78,0,0,0-14.07-.82,11.84,11.84,0,0,0-5.17,12.67c-.19.43-.36.88-.51,1.33a12.14,12.14,0,0,0-2.58,8.72,4.9,4.9,0,0,1,1.64,2.38c.46,1.37,1,2.68,1.55,4,8.61,4.93,12.91,14.83,20.17,21.33a5.06,5.06,0,0,1,1.09,1.37,154.24,154.24,0,0,0,19.07,9.65,11.11,11.11,0,0,0,.72,2l1.66,1.22c5.48,2.41,11,4.68,16.46,7,1.94.49,3.88,1,5.79,1.49a5,5,0,0,1,2.27,1.27l2.15.05c5.81.08,12.63.61,18.57-.86a4,4,0,0,1,3.1-2c.56-.09,1.11-.17,1.66-.23a12.83,12.83,0,0,1,7.06-2.41,4.64,4.64,0,0,1,3.36-1.29,4.56,4.56,0,0,1,4.61,3.44,5.55,5.55,0,0,1,2.28,4.09c.25,2.82-1.49,5.65-3.1,7.83-1,1.28-2,2.5-3,3.69a4,4,0,0,0-.5-.05,3.38,3.38,0,0,0-3.34,4.06c-2.37,2.36-4.8,4.66-7.07,7.07-.68.72-1.33,1.44-2,2.18a8.7,8.7,0,0,1-1.92,1.91,4.76,4.76,0,0,1-4.39,0,68.85,68.85,0,0,0-6.74,9,5.92,5.92,0,0,1-.72,1,60.68,60.68,0,0,0,.31,9c1.36-.11.71,2.5,2.09,2.5,1,0,3.67-2.22,4.09-1.6a18.55,18.55,0,0,1,3.58-2.11c2.07-1,4.16-2.6,6.33-3.29,4.67-2.87,9.37-5.69,12.26-10.42,2.7-4.41,3.14-9.7,3.77-14.72a48.63,48.63,0,0,1,1.35-7.38A15.37,15.37,0,0,1,437,274a4.54,4.54,0,0,1,4.52-3.15c4,0,5.49,3.8,4.56,6.71,1,7.06,4.22,13.88,3.94,21,3.53,4.88,6,9.28,11,12.83.74.53.19-1.11,1-.83,0-.85,1.58.31,2.18-.53,2.28-3.12,5.19-5.93,9.1-6.73,1.83-.38,4.06-.53,5.7.5a4.92,4.92,0,0,1,2.06,2.76,18.65,18.65,0,0,1,4.5,3.46,4.89,4.89,0,0,1,1.32,2.49,72.7,72.7,0,0,1,9.55,11.07c1.21,1.66,2.35,3.36,3.44,5.09a3.33,3.33,0,0,0,.14,3q2.14,4,4.27,8a7.9,7.9,0,0,0,2.13,3.64,4.31,4.31,0,0,0,.48.39,5.13,5.13,0,0,1-.38,2.41,39.1,39.1,0,0,1,2.33,4.87,3.9,3.9,0,0,1-.2,3.26c2.4,7.17,5,14.28,7,21.54a2.33,2.33,0,0,1,2.34,1.77,30.85,30.85,0,0,1,1.49,8.15c2.66,3.91,3.62,9.13,4.35,13.61,1,5.87,1.81,11.78,2.48,17.71a2.35,2.35,0,0,1,.06.54v0c.13,1.11.26,2.22.37,3.33.47,4.87.78,9.75.81,14.64,0,.15,0,.28,0,.42a11.59,11.59,0,0,0,2,.74,12.35,12.35,0,0,0,6.13,0c1-1.2,2.19-2.51,3.29-3.9a5.31,5.31,0,0,1,0-2.28,5.12,5.12,0,0,1,2.29-3,5,5,0,0,1,.75-.34,4.76,4.76,0,0,1-.22-1.34,20.15,20.15,0,0,1,0-3,5.42,5.42,0,0,1,.68-2,3.73,3.73,0,0,1,.35-1.52,1,1,0,0,0-.11-.17c-.3-.42-.61-.83-.9-1.26a2.7,2.7,0,0,1,.95-3.64,2.32,2.32,0,0,1,1.58-.34,2.46,2.46,0,0,1,2.61,1.2,20.7,20.7,0,0,0,1.13,1.93,3.88,3.88,0,0,1,2.81,2.87c.08.27.15.55.21.82a4.55,4.55,0,0,1,1.56,0,5.46,5.46,0,0,1,2.32,1.09l3.4.23c0-.16,0-.33.06-.52a4.21,4.21,0,0,1,.23-.88.59.59,0,0,0,0-.13c0-.25-.07-.5-.1-.75a7.72,7.72,0,0,1-.27-6.9,5.16,5.16,0,0,1,4.82-3.68c5.64.11,10,4.53,15.09,6.75a14.57,14.57,0,0,0,1.12-2.78,4.05,4.05,0,0,1,.16-.77A29.79,29.79,0,0,1,577.82,402.67Z"/><path class="cls-8" d="M463.36,279.06c-3-7.32-4.94-15.15-7.57-22.63-2.5-7.09-5.18-14.13-8.11-21.05-5.3-12.51-11.85-25-22.1-34.19s-26.66-7.06-39.05-4.5c-8.31,1.72-16.21,3.34-24.77,3.12s-17-1.56-25.48-2.92a3.73,3.73,0,0,0-4.16,2.6,3.16,3.16,0,0,0-1.94,1.61,104.7,104.7,0,0,0-6.86,15.74c-1.49,4.27,5.27,6.1,6.75,1.86a95,95,0,0,1,6.15-14.07,3.73,3.73,0,0,0,.28-.66c13.66,2.18,27.47,4.08,41.24,1.75,7.27-1.23,14.24-3.33,21.65-3.74,7.18-.39,15.58-.86,21.24,4.16,10,8.89,16.24,21.28,21.29,33.46,2.78,6.73,5.34,13.56,7.73,20.45s4.16,14.12,7,20.87C458.31,285,465.09,283.22,463.36,279.06Z"/><path class="cls-9" d="M526.51,334c.23-.63.44-1.26.64-1.89a27,27,0,0,1,.54-4,12.19,12.19,0,0,1-.18-5.07c.39-3.53,1-7.17.55-10.72a2.79,2.79,0,0,1,1.1-2.66c-.2-2.75-.52-5.5-.91-8.21a2.48,2.48,0,0,1-.94-1.38,15.66,15.66,0,0,1-.37-2.65l-.06-1.12c0-.15-.09-1-.07-.85a2.86,2.86,0,0,1,1.18-3c-1-3.66-2.07-6.87-3-10.86-1.16-5-1.87-11.25-4.84-15.41a256.24,256.24,0,0,0-19.62-23.52c-6.46-7.07-13-13.52-17.54-22.07-.89-1.69-3.71-3.24-5-4-.73-2.57-1.92-4.41-2.83-6.94a53,53,0,0,1-9.85-18c-1.08-1.84-2.1-3.69-3-5.6-.18-.45-.34-.9-.51-1.36a2.13,2.13,0,0,1-2.39-1.91c-.34-2-1.8-4.25-2.44-6.2-1-.8-1-1.42-1.88-2.37a2.79,2.79,0,0,1-.59-1.09,11.28,11.28,0,0,0-2.83-1.28,28.18,28.18,0,0,0-.16-4.68,22.21,22.21,0,0,1-.55-3.16c-.14-.62-.28-1.23-.46-1.85a11,11,0,0,0-.83-2c-.24-3.12-.54-6.23-1-9.31a33.57,33.57,0,0,0-3.54-11c-1-2-3.42-4.67-3.6-6.91a11.11,11.11,0,0,0-2.08-5.72,9.17,9.17,0,0,0-2.89-4.73,11.05,11.05,0,0,0-.28-4.37,9.17,9.17,0,0,0,5.52-8.5c0-.31,0-.64,0-1A10.64,10.64,0,0,0,442.28,98c1-3.91-1-8.74-4.52-10.57-4.75-2.51-9.55-1-12.68,3a12.26,12.26,0,0,0-3.67,1.79c-3.26,2.38-5.34,5.73-7.64,9a8,8,0,0,0-1.5,4.08,2.3,2.3,0,0,0-.26,0c-6.88-.37-14.35-.94-21.55-.56-4.48-1-12.5-2.94-15.4-3.76,0-.15,0-.28.06-.46a22,22,0,0,0-.61-5.79A49.72,49.72,0,0,0,371,84a13.88,13.88,0,0,0-1.37-2.57,9.25,9.25,0,0,0-15.58-1.9c-5.09,3.82-5.87,11.61-5.88,17.92,0,4.38.08,8.76.22,13.13a10.29,10.29,0,0,0-2.07,1.73,63.53,63.53,0,0,0-6.91,9.2,5,5,0,0,1,.4,2c-5.35,7-9.28,15.16-12.91,23.16a15.53,15.53,0,0,0-1.34,5.13,27,27,0,0,0-2.12,5c-1.65,5.46-1.24,11-.59,16.49a13.54,13.54,0,0,0,1.21,10.12c.35,2.21-.24,4.18.9,6.13a13.55,13.55,0,0,0,3,3c-1.11-.07-1.32.75-2,1.63-.92,1.18-2.16,1.14-3,2.37-1.26-.06-2.17,1.74-3,3.21-.24.44-.46.88-.7,1.32-3.69.37-5.09,4.55-6.6,7.36L305,222.93c-1.47,2.73-3.08,5.46-4.48,8.27a3.94,3.94,0,0,1,.79,2.76c-.38,3.57-1,7.1-1.64,10.62a5.75,5.75,0,0,1-.2,1.38c-.59,2.13-1.1,4.26-1.48,6.41a4,4,0,0,0,.79.7,89.26,89.26,0,0,0,0,11.68A5,5,0,0,1,300,268c0,.34,0,.67,0,1a4.82,4.82,0,0,1,2.29,4,2.16,2.16,0,0,0-1.52,1.42c-.45,1.22-.89,2.45-1.34,3.67a2,2,0,0,0,1.4,2.46,1.88,1.88,0,0,0,.91,0s0,.08,0,.12a5.67,5.67,0,0,1,.94-.08,4.57,4.57,0,0,1,4.63,3.5c.58-.05,1.15-.14,1.7-.24h0a4.54,4.54,0,0,1,3.53-3.46,1.81,1.81,0,0,0,1.78,1.21,1.89,1.89,0,0,0,1.93-2.06,9.4,9.4,0,0,0,.34-.88,3.84,3.84,0,0,0,.69-3.32c0-.12-.05-.24-.08-.36.14-2.26,0-4.66,0-6.84,0-8.84-.22-17.7.58-26.51a98.42,98.42,0,0,1,5.21-25c.59-1.68,2.55-4.33,2.64-7l.05-.07a57.87,57.87,0,0,1,6-9.68,4.51,4.51,0,0,0,.9-4.28,31.86,31.86,0,0,0,4.37,1.92c7.46,2.67,15.65,2.15,23.41,1.62a137.89,137.89,0,0,0,23.3-3.62c7-1.7,13.52-1.33,20.72-1.13.35,0,.29,1.19.65,1.2.6.23,1.64-.74,2.31-.6a15.08,15.08,0,0,0,5.36,1.52c1.07.09,2.12.16,3.17.2,2.47.19,5,.4,7.57.4a15.91,15.91,0,0,0,2.48,4.25A225.88,225.88,0,0,1,439.35,220a14,14,0,0,0,3.33,10.14c-.7-.86.32.69.41.84l.51.91.19.51c.67,1.69,1.16,3.47,1.68,5.21,0,.11.08.23.11.34a4.63,4.63,0,0,1,2.78,3.39c3.07,1.32,3.27,10.92,4,12a5.28,5.28,0,0,1,.91.34A11.53,11.53,0,0,0,456,259a6.43,6.43,0,0,0,.6.57c.92,7.44,2.25,14.82,3.65,22.18a10.35,10.35,0,0,0,3.32,1.34,4.57,4.57,0,0,1,3.81-1.81,4.64,4.64,0,0,1,3.44,1.37,14.45,14.45,0,0,0,3.05-1.45,5.2,5.2,0,0,1-.4-.82c-4.42-4.76-2.48-7.65,1.33-8.85.12.29.26.58.41.87a41.52,41.52,0,0,0,10.25,12.53c.36.29.72.56,1.08.82a22.65,22.65,0,0,0,1.63,3.27c.79,1.28,1.65,2.52,2.54,3.75,3.3,3.65,6.46,7.41,9.42,11.31,0,.32.12.64.19,1,1.93,2.53,3.83,5.1,5.67,7.69.15.09.28.2.43.29.72,1.1,1.42,2.21,2.1,3.34.49.71,1,1.43,1.44,2.15a2.71,2.71,0,0,1,2.72,1.11,86.75,86.75,0,0,1,5.2,8.79,14.11,14.11,0,0,1,3.25,5.32h0a10.51,10.51,0,0,0,2.79,0,9.44,9.44,0,0,0,3.49,6.63c-.07-.65-.13-1.32-.17-2A4.1,4.1,0,0,1,526.51,334Z"/><path class="cls-5" d="M244.71,271.27a18.57,18.57,0,0,0-3.31-6.16c-1.91-2.5-2.67-4.39-2.74-6.78a5.16,5.16,0,0,1-1.23-4.78,10.9,10.9,0,0,1,.8-2,3.26,3.26,0,0,0-.53-.58c.2-.15.42-.29.63-.44l.7-.37c.16-.26.33-.52.51-.77a10.76,10.76,0,0,1,2.4-3l0,0h0a9.77,9.77,0,0,1,1-.79,3.86,3.86,0,0,1,.57-.3,4,4,0,0,0-2.14-2.78c-.46.32-.93.63-1.39,1a4.88,4.88,0,0,1-3.85.5,2.52,2.52,0,0,1-.39-.12c-.47.27-.91.55-1.34.84-4.51,2.57-9.22,5.84-11.71,10a21.77,21.77,0,0,0-2.1,5.23,9.63,9.63,0,0,0-2.07,4.05c-3.07,2-5.14,4.59-3.35,6.88a.61.61,0,0,0-.05.12c-4.28,12.2,17.29,12.57,24,10.33C244,279.67,246.11,276.24,244.71,271.27Z"/><path class="cls-10" d="M528.88,305.63q-1.51-8.37-3.37-16.69a7.71,7.71,0,0,0-.56-5.38l-4.21-13.76c-.6-3.28-1.6-5.11-3.74-6.17.12-2.89-1.85-6.09-5.11-8.07-2.57-2.91-5-5.64-7.58-8.55a7.8,7.8,0,0,0-6.37-4.63,224.68,224.68,0,0,1-14.83-20.81h0c-.41-.58-.85-1.15-1.32-1.73a7,7,0,0,0-3.63-2.41,22.48,22.48,0,0,0-.86-4.91C455,177.63,446.85,235.8,448,239.63c.55,1.82.85,3.54,2,5,.06,1,.89,2,1,3,.68,6,3.87,10.09,5,16a12.47,12.47,0,0,0,2.19,3.46,20.38,20.38,0,0,0,.31,10.05c.63,2.5.64,4.23,2.18,5.91.51.56,2.48,2.62,2.88.66a2.06,2.06,0,0,1,.43-.89,2.43,2.43,0,0,1,4.77,0c2.09.67,4.76.65,4.7-2a31.47,31.47,0,0,1-2.15-5.29c-.93-3.13,3.95-4.45,4.88-1.34.09.32.21.62.31.93.35.94.79,1.91,1.19,2.91a35,35,0,0,0,5.53,8c1.52.94,3.12,1.8,4.76,2.6l2.89,5c1.18,1.13,2.34,2.26,3.46,3.42A89.61,89.61,0,0,1,506,311.63c2.51,1.07,3.62,4.67,4.75,7.25,5,4,9.3,9.41,10.94,15.08a.2.2,0,0,0,0,.07,8.71,8.71,0,0,0,2.64.21,22.38,22.38,0,0,0,3-6.53c1.06-4.55.44-9.39,1.25-14a2.55,2.55,0,0,1,.18-.59c-.25-2-.46-3.93-.52-5.74A2.27,2.27,0,0,1,528.88,305.63Z"/><path class="cls-11" d="M474,236.26c-8.08.54-24.36-5.49-31-10.63-3.56-2.75,0,8,2.77,12,7.6,5.87,19,6.27,28.25,5.65C478.49,243,478.52,236,474,236.26Z"/><path class="cls-11" d="M474.77,251.5c-6.67.81-17.65-1-23.77-3.87-4.06-1.88,1,4,.95,7.08a41.76,41.76,0,0,0,22.82,3.79C479.18,258,479.24,251,474.77,251.5Z"/><path class="cls-11" d="M316,229.19c-2.93-.3-9.33-4.16-11-6.56-1,3-4,3-2.42,5.7,2.84,4.84,7.84,7.28,13.42,7.86,1.88.19,3.5-1.75,3.5-3.5C319.5,230.63,319,230.63,316,229.19Z"/><path class="cls-11" d="M300,236.63c-1,3-2,2-1.09,5.56,1.5,5.83,9.23,7.9,15.33,7.1,1.89-.25,3.47-1.43,3.5-3.5C317.75,244.09,302.14,239.65,300,236.63Z"/><path class="cls-11" d="M450.85,162.28a3.78,3.78,0,0,0-.85-.13c-4.22-.13-14.66-1.54-13.92,5.31.64,5.93,9.35,5.63,13.64,6a3.3,3.3,0,0,0,3.1-2A19.92,19.92,0,0,1,450.85,162.28Z"/><path class="cls-11" d="M447.71,183.14c.63-1,1.58-2.06,1.63-3.26a2.55,2.55,0,0,1,1.71-2.36c-.35-.86-.95-.51-2.05-.89-3.83-1.35-12.36-3.92-13.85,1.5a5.32,5.32,0,0,0,3.7,6.29c2.29.76,5,.7,7.44,1a1.61,1.61,0,0,0,.31,0A10.47,10.47,0,0,1,447.71,183.14Z"/><path class="cls-11" d="M516.27,258.68a14.16,14.16,0,0,1-5.5-6.28,9.69,9.69,0,0,0-1.35.49c-6.48,2.88-23,9-19,14.72,3.47,4.92,16.63-1.56,23.36-4.24a6.93,6.93,0,0,0,3.44-2.93A13.16,13.16,0,0,1,516.27,258.68Z"/><path class="cls-11" d="M519.79,264.77c-6.51,1.54-20.27,5.26-20.25,11.17,0,3.05,4,4.14,8.3,3.07,3.81-.95,8-3,11.75-4.44l2.41-.94c.06-.89-1.56-1.14-1.18-2.09.32-.79.78-1.68,1-2.52C521.11,267.62,520.38,266.22,519.79,264.77Z"/><path class="cls-11" d="M525.53,280.32c-.16-.74-.29-1.51-.41-2.29a8.76,8.76,0,0,0-.78-.71,1.89,1.89,0,0,1-.71-1.27c-6.85,1.68-19.11,5.31-19.09,10.89,0,3.05,4,4.14,8.3,3.07,3.81-.95,8-3,11.75-4.44a4.09,4.09,0,0,0,.47-.23,9.46,9.46,0,0,1,.7-2.66A2.83,2.83,0,0,1,525.53,280.32Z"/><path class="cls-12" d="M500.21,449a95.82,95.82,0,0,1-43.14-17.62,5.71,5.71,0,0,0-3.23-1.08c-.69-1-1.39-1.85-2.06-2.69-5.41-2.81-7.32-10.46-8.13-16.47-3.8-2-9.1,1-10.7,6.42-.05.16-.11.32-.16.49a6.55,6.55,0,0,0-3.76,4.89,53,53,0,0,1-2.32,7.58,7.37,7.37,0,0,0-.43,1.74c-.75,1.18-1.55,2.32-2.39,3.45-1.18,5.93-2,12.94-2.89,18.93s-1,10,.32,17.8c2.73,1.46,6.34,1.91,10,2h.15c3.63.07,7.28-.21,10.11-.21,8.82,0,17.75-.09,26.58-.76,7.37-.86,14.89-2.55,21.4-6.15,6-3.32,10.28-8.46,14.17-14a2.59,2.59,0,0,1,1-.86A6.21,6.21,0,0,0,500.21,449Z"/><path class="cls-12" d="M403.28,463.55c-.31-1.34-.62-2.68-.91-4a5.11,5.11,0,0,0-.47-.21c.11-.2.2-.41.29-.61-1-4.54-1.89-9.1-3-13.61a4.49,4.49,0,0,1-.11-1.44,3,3,0,0,1-.52-.42c-2.58-3.61-9-1.62-12.75,1.5a6.59,6.59,0,0,0-2.17,5.39,76.51,76.51,0,0,0-4.13,11.22,3.93,3.93,0,0,1,.62,2.15,16.18,16.18,0,0,1-.65,4.14,4.51,4.51,0,0,1-.3.78,8.48,8.48,0,0,0,3,3.41,4.32,4.32,0,0,1,1.11-.15c2.27,0,4.54,0,6.8.1l0,0,.27,0a63.36,63.36,0,0,1,9.7,1,4.39,4.39,0,0,1,1.25.47h.05A6.92,6.92,0,0,0,404.5,471,43.62,43.62,0,0,1,403.28,463.55Z"/><path class="cls-12" d="M359.71,455.42a7.57,7.57,0,0,0-3.22-4.05,2.9,2.9,0,0,1-1.31.43c-1.81.15-4.24-.67-6-1.14-2.85-.77-5.91-1.09-8.2-3-1.95.41-3.55.46-4.76,2.2,0,.06,0,.11,0,.17-.91,5.81-.4,11.37-1.92,17.08-.55,2.07-1.33,3.69.49,5.11a2.72,2.72,0,0,0,.44.27,2.4,2.4,0,0,1,.76-.16c2.68-.07,5.35,0,8,0a3.88,3.88,0,0,1,1.59-.84,20.9,20.9,0,0,1,3.61-.49l.68,0a4,4,0,0,1,1.35-.26h1.37c1,0,1.65-.68,2.38-.09,2.16-.57,4.31-.71,5.39-2.52A31.52,31.52,0,0,1,359.71,455.42Z"/><path class="cls-12" d="M315.15,465.32c-1.84-5.85-1.7-12.51-1.52-18.93-.06-.47-.12-.93-.19-1.39a2.7,2.7,0,0,1,.27-1.74c.05-2.16.06-4.28,0-6.3a2.61,2.61,0,0,1,0-.4,6.72,6.72,0,0,0-2.6-2.12,9,9,0,0,0-7.53,0,4.47,4.47,0,0,1-1.68,5.4l0,.27a2,2,0,0,1,.46,1.52c-.36,3-1,6-1.33,9a2.81,2.81,0,0,1-1.88,2.39,63.07,63.07,0,0,0-.12,7.27,2.3,2.3,0,0,1-.89,2c-.18,2.19-.17,4.4-.29,6.6a8.32,8.32,0,0,0,3.54,2.43,77.46,77.46,0,0,1,8.48,1,16.62,16.62,0,0,1,2.26-.75,3.37,3.37,0,0,0,1.91.56C318.08,472.13,318.46,466.41,315.15,465.32Z"/><path class="cls-12" d="M287.89,469.56c-1.05-2.88-1.91-5.79-2.69-8.72l-.18-.07-.25-.07c0-.18.08-.45.17-.85-1.68-6.52-3-13.14-4.87-19.7-2.88-10-6.49-19.53-7-30a6.92,6.92,0,0,0-6.07-3.32c-3.86-.06-8.34-.81-11.94.87-4.11,1.92-7.18,5.57-6.06,9.89,1.83,7,10.2,13.14,14.32,18.81.25.34.49.69.72,1a2.52,2.52,0,0,1,3.19,1.77c1.73,6.17,5.31,11.74,6.45,18.07.92,5.11-1.07,10.93.41,15.89a8.29,8.29,0,0,0,.92.32l1.63.46a12.18,12.18,0,0,0,6.38,1.52,7.16,7.16,0,0,0,5-2A3.05,3.05,0,0,1,287.89,469.56Z"/><path class="cls-2" d="M357.72,448.29c0-1-.08-2-.18-2.93,0-.19,0-.37-.07-.56s0-.18-.05-.38l-.21-1.32a4.64,4.64,0,0,1,1.19-4.19c-.11-.5-.23-1-.36-1.49-.74-2.85-4.35-3.14-6-1.4-4.21-1.59-8.55-2.86-12.61-4.8-4.49-2.16-7.4-6.84-11.86-8.74l1.5-1.82c2.06-2.47.6-5.6-2.47-6-5.63-.68-7.58,3.41-9.05,8.45a3.54,3.54,0,0,0,3.88,4.39c.35,6.85,8.18,10.85,13.42,14.59s10.41,7.52,16.4,8.67a3.61,3.61,0,0,0,1,.86,8,8,0,0,0,3.15,1.2,4,4,0,0,0,3.81-1.36A4.49,4.49,0,0,1,357.72,448.29Z"/><path class="cls-11" d="M325,152.63c.27,0,2.71.89,3,1,4,1.42,14.65,2.92,11.46,9-2.77,5.27-10.77,1.8-14.91.61a3.29,3.29,0,0,1-2.17-3C324.82,158.28,323.8,155.55,325,152.63Z"/><path class="cls-11" d="M322.52,173.91c-.23-1.14-.71-2.5-.32-3.64a2.55,2.55,0,0,0-.72-2.82,3.44,3.44,0,0,1,2.7-1.07c4.06.15,12.46,1.88,11.86,7.48a5.33,5.33,0,0,1-5.75,4.49c-2.4-.14-5-1.21-7.27-1.85a1.78,1.78,0,0,1-.29-.12A10.27,10.27,0,0,0,322.52,173.91Z"/><path class="cls-13" d="M390.61,291.34c-1-3.07-3.72-4.36-6.77-3.84L375.2,289c-2.85.48-4.69,4.14-3.84,6.77,1,3.07,3.72,4.35,6.76,3.84l8.65-1.47C389.61,297.62,391.46,294,390.61,291.34Z"/><path class="cls-13" d="M327.22,292.41a5.71,5.71,0,0,0-3.89-1.62h-2.66a5.66,5.66,0,0,0-3.89,1.62,5.49,5.49,0,0,0,0,7.77,5.7,5.7,0,0,0,3.89,1.61h2.66a5.65,5.65,0,0,0,3.89-1.61,5.49,5.49,0,0,0,0-7.77Z"/><path class="cls-14" d="M449.28,291.69c-.79-2.75-1.26-6.21-3.2-8.41a6.64,6.64,0,0,0-8.32-1.46,7.78,7.78,0,0,0-3.77,7.62,12.65,12.65,0,0,0,1.47,4.56c.45.89,1.39,1.95,1.47,3a4.61,4.61,0,0,0,4.5,4.5c2.24,0,4.59-2,4.5-4.36A4.21,4.21,0,0,0,449.28,291.69Z"/><path class="cls-14" d="M374.67,332.52a15.34,15.34,0,0,1-6.37-1.5,4.62,4.62,0,0,0-6.16,1.61c-1.15,2-.58,5.09,1.62,6.16a26.33,26.33,0,0,0,10.91,2.73,4.5,4.5,0,1,0,0-9Z"/><path class="cls-11" d="M405.68,106.76c0,.37-.22,3.76-.25,4.16-.43,5.52-.43,16.71-6.44,16.37-6.34-3.24-6.12-15.93-6-21.66,0-1.77,2.66-.71,4-1C401,105.63,402,103.63,405.68,106.76Z"/><path class="cls-11" d="M390.84,104.87c0,.37-.28,3.76-.32,4.16-.53,5.5-.74,16.69-6.75,16.25-6.27-3.37-5.82-16-5.58-21.78.07-1.76,1.46.39,2.81.13C385,104.7,386,103.63,390.84,104.87Z"/><path d="M431,94l-9.39,8c-1.6,1.37-4.73,3.1-5.18,5.38-.34,1.71.68,2.41,1.91,3.28,3.47,2.45,7.95,4.09,11.73,6,1.29.66,2.43-1.28,1.14-1.94L423.83,111c-1.07-.55-2.89-1-3.66-1.89-1.27-1.4-.61-2.09.64-3.5,3.3-3.7,7.95-6.77,11.74-10,1.1-.94-.5-2.52-1.59-1.59Z"/><path d="M360.25,85.93a82.31,82.31,0,0,0,5.49,13.7l.68-1.65a23.42,23.42,0,0,1-7.76,1.56c-1.44,0-1.45,2.3,0,2.25a25.72,25.72,0,0,0,8.36-1.64,1.15,1.15,0,0,0,.67-1.66,77.91,77.91,0,0,1-5.27-13.16,1.13,1.13,0,0,0-2.17.6Z"/><path class="cls-4" d="M461,379.93a29.65,29.65,0,0,1-2.11,4.62,4.14,4.14,0,0,0-2.55,3.41c0,.27-.08.54-.11.81-5.09,7.28-11.75,13.83-13.13,22.77a4.08,4.08,0,0,0,.88,3.28,4.57,4.57,0,0,0,1.16,1.68c0,.08,0,.17,0,.25a3.84,3.84,0,0,0,3.83,4.54,3.76,3.76,0,0,0,3.85-3.9,61.17,61.17,0,0,0,8.34-15.75,35.21,35.21,0,0,0,3.64-11.29c0-.18,0-.34,0-.51a38.6,38.6,0,0,0,3.85-7.78C470.4,377.19,462.67,375.1,461,379.93Z"/><path d="M375.5,271.63c-2.57,0-2.58,4,0,4S378.08,271.63,375.5,271.63Z"/><path class="cls-1" d="M316.29,264.64c1.26-3.86,5.83-5.74,9.58-5.87a12.76,12.76,0,0,1,10.68,5.06c2.24,3,3.75,7.95,1.79,11.46a12.89,12.89,0,0,1-4.7,4.4c-9.14,6.44-16.33-5.66-17.14-6.56"/><path d="M317.36,265.27c2.39-5.64,10.06-6.52,14.92-3.63a12,12,0,0,1,5.23,6.84c1.21,4.25-.46,7.38-4,9.8-7.06,4.86-12-.78-16.16-6-1-1.25-2.76.53-1.76,1.77,2.74,3.44,5.45,7.18,9.93,8.43,5.64,1.58,13.15-2.86,14.63-8.49,3.64-13.83-19.2-23.61-25-9.94-.62,1.46,1.53,2.74,2.15,1.26Z"/><path class="cls-1" d="M366.32,258.73c-5.17,3.51-9,11-4.32,16.51,2.37,2.8,6.27,3,9.66,3.3,3.55.3,14.84-5.41,15.84-10.41"/><path d="M365.69,257.65c-7.89,5.9-10.56,19.3,1.72,21.66,7.48,1.44,18.9-2.94,21.3-10.85a1.26,1.26,0,0,0-2.42-.66c-1.46,4.82-9.26,9-14,9.48-3.49.37-8.13-.79-10.09-3.88-3.13-4.92.87-10.69,4.75-13.59,1.27-1,0-3.13-1.26-2.16Z"/><path d="M376,275.54a1.25,1.25,0,0,0,0-2.5,1.25,1.25,0,0,0,0,2.5Z"/><path d="M328,278.54a1.25,1.25,0,0,0,0-2.5,1.25,1.25,0,0,0,0,2.5Z"/><path class="cls-12" d="M457.25,146.55a14.65,14.65,0,0,0,6.47-4.2c.86-1-.55-2.38-1.41-1.41a12.69,12.69,0,0,1-5.59,3.68c-1.22.39-.7,2.32.53,1.93Z"/><path class="cls-12" d="M459.77,154.39l5,1c1.25.25,1.79-1.68.53-1.93l-5-1c-1.26-.25-1.8,1.68-.54,1.93Z"/><path class="cls-12" d="M318,151.37a16.09,16.09,0,0,0-5.25-8.44c-1-.82-2.4.58-1.41,1.41A14.3,14.3,0,0,1,316,151.9a1,1,0,0,0,1.93-.53Z"/><path class="cls-12" d="M314.18,156.9l-5.35-7.75c-.73-1.05-2.46-.05-1.73,1l5.35,7.75c.73,1.06,2.46.06,1.73-1Z"/><path class="cls-8" d="M577.84,402c-5.16-3.12-10.26-6.38-14.52-10.67A22.53,22.53,0,0,1,556,381.24c-1.23-3.07-2-6.38-3.58-9.31-1-1.91-2.23-3.68-3.27-5.57-2.92-.67-16.13,31.27-25.31,36.06-1.7.88,0,3.73,1.08,5.16,0,.27,0,.54.08.82l.75,4.47a24,24,0,0,0-.36,6.41c.43,5.42,2.26,16.86,8.51,18.8a4.28,4.28,0,0,1,1.24-.75c3.44-4.08,9-9.57,7.42-15.06a3.89,3.89,0,0,1,.54-3.46,11.24,11.24,0,0,1-.6-1.07,2.6,2.6,0,0,1,.91-3.46,2.54,2.54,0,0,1,3.46.91,20.7,20.7,0,0,0,1.13,1.93,3.88,3.88,0,0,1,2.81,2.87l.05.2,3.12,1.5a6.41,6.41,0,0,0,4.59.53v-.09c0-.35.05-.7.08-1.05,0-.15-.06-.31-.08-.46a9.94,9.94,0,0,1,.06-4.31c-.06-.78-.13-1.57-.22-2.35-.3-2.46,2.19-4.09,4.28-4.28,2.28-.2,4.69,1,6.55,2.19a22.71,22.71,0,0,1,2.15,1.56c1.3.23,2.59.5,3.89.79a6.08,6.08,0,0,0,3.91-.39,4.63,4.63,0,0,1,.2-1.34A29.64,29.64,0,0,1,577.84,402Z"/><path class="cls-15" d="M383.55,365.91a5.49,5.49,0,0,0-.86-.64,3.47,3.47,0,0,0-.27-.59,4.16,4.16,0,0,0-5.7-1.5,4.08,4.08,0,0,0-1.91,2.49,6.44,6.44,0,0,0,0,2.93,6.25,6.25,0,0,0,1.43,2.53,2.36,2.36,0,0,0,.32.31,6.66,6.66,0,0,0,1.17.86,6,6,0,0,0,2.86.71,4.15,4.15,0,0,0,4.16-4.16A4.21,4.21,0,0,0,383.55,365.91Z"/><path class="cls-16" d="M291.62,368A13.17,13.17,0,0,0,281,364.36a3.09,3.09,0,0,0-3,3C285,378.63,294.44,370.66,291.62,368Z"/><path class="cls-17" d="M301.67,479.29a1,1,0,0,0,0,2A1,1,0,0,0,301.67,479.29Z"/><path class="cls-17" d="M299.67,480.46a1,1,0,0,0,0,2A1,1,0,0,0,299.67,480.46Z"/><path class="cls-17" d="M297.17,480.63a1,1,0,0,0,0,2A1,1,0,0,0,297.17,480.63Z"/><path class="cls-17" d="M327.17,477.79a1,1,0,0,0,0,2A1,1,0,0,0,327.17,477.79Z"/><path class="cls-17" d="M329.33,477.46a1,1,0,0,0,0,2A1,1,0,0,0,329.33,477.46Z"/><path class="cls-17" d="M330.5,475.63a1,1,0,0,0,0,2A1,1,0,0,0,330.5,475.63Z"/><path class="cls-17" d="M377.83,489.46a1,1,0,0,0,0,2A1,1,0,0,0,377.83,489.46Z"/><path class="cls-17" d="M376,490.29a1,1,0,0,0,0,2A1,1,0,0,0,376,490.29Z"/><path class="cls-17" d="M374.17,489.46a1,1,0,0,0,0,2A1,1,0,0,0,374.17,489.46Z"/><path class="cls-17" d="M421,488.13a1,1,0,0,0,0,2A1,1,0,0,0,421,488.13Z"/><path class="cls-17" d="M418.83,488.29a.92.92,0,0,0-.93.8.91.91,0,0,0-.9-.63,1,1,0,0,0,0,2,.91.91,0,0,0,.93-.79.9.9,0,0,0,.9.62A1,1,0,0,0,418.83,488.29Z"/><path class="cls-18" d="M392.94,373.36a2.55,2.55,0,0,0-3.54,0,18.85,18.85,0,0,0-2.72,3.51,2.52,2.52,0,0,0,.89,3.42,2.55,2.55,0,0,0,3.42-.9c.15-.24.3-.48.46-.71l.24-.35.21-.29.11-.13.28-.32c.21-.24.42-.47.65-.69A2.55,2.55,0,0,0,392.94,373.36Z"/><path class="cls-18" d="M396.84,376.88a3.73,3.73,0,0,0-3.68,3.24,2.54,2.54,0,0,0,.74,1.77,2.48,2.48,0,0,0,1.76.73,2.86,2.86,0,0,0,1.77-.73,3.39,3.39,0,0,0,1.15-1.93A2.55,2.55,0,0,0,396.84,376.88Z"/><path class="cls-18" d="M401.67,380.13a2.54,2.54,0,0,0-2.5,2.5v1.66a2.5,2.5,0,0,0,5,0v-1.66A2.53,2.53,0,0,0,401.67,380.13Z"/><path class="cls-18" d="M414.44,386.39a2.87,2.87,0,0,0-.67-1.2,2.5,2.5,0,0,0-3.53,0,3,3,0,0,0-.74,1.77,3.13,3.13,0,0,0,1.07,2.6,2.68,2.68,0,0,0,1.76.73,2.53,2.53,0,0,0,1.77-.73A2.66,2.66,0,0,0,414.44,386.39Z"/><path class="cls-18" d="M423.6,386.29l-.5-.33a2.52,2.52,0,0,0-3.42.9,2.56,2.56,0,0,0,.9,3.42l.5.33a2.52,2.52,0,0,0,3.42-.9A2.56,2.56,0,0,0,423.6,386.29Z"/><path class="cls-18" d="M434.09,388.63l-.2-1.16a2.51,2.51,0,0,0-3.07-1.75,2.57,2.57,0,0,0-1.75,3.08l.2,1.16a2.51,2.51,0,0,0,3.08,1.74A2.56,2.56,0,0,0,434.09,388.63Z"/><path class="cls-18" d="M439.33,385c-3.21,0-3.22,5,0,5S442.56,385,439.33,385Z"/><path class="cls-8" d="M436.46,259.5a3.52,3.52,0,0,0-4.95,0,3.58,3.58,0,0,0,0,4.95,8.06,8.06,0,0,1,1.87,5.51c-.07,4.5,6.93,4.5,7,0A15.46,15.46,0,0,0,436.46,259.5Z"/><path class="cls-10" d="M331.93,197.37a2.57,2.57,0,0,0-2.87-2.47,2.53,2.53,0,0,0-3.52,0l-1.47,1.69c-.06.07-.1.13-.15.2l-.84.12a2.45,2.45,0,0,0-1.81,2.58,3,3,0,0,0-.18.45c-.33,1.2,5.33,3.53,7.16,3.39a2.57,2.57,0,0,0,2.5-2.5,2.26,2.26,0,0,0-.12-.68A3.15,3.15,0,0,0,331.93,197.37Z"/><path class="cls-16" d="M272.55,449.84c-1.2-3.3-2.93-5.6-4.72-8.54-.93-1.52-1.12-2.91-2.26-4.31s-2.87-2.7-4.24-4.07c-3.43-3.42-7.85-7.54-9.73-12.07-1-2.34-4.85-1.32-3.86,1.06,1.35,3.27,3.44,5.74,5.75,8.38,3,3.47,7.38,6.61,9.76,10.49,3.94,6.43,7.42,12.89,7.52,20.72,0,2.57,4,2.58,4,0A34.71,34.71,0,0,0,272.55,449.84Z"/><text class="cls-19" transform="translate(163.5 142.87)">我的猫<tspan class="cls-20"><tspan x="20.88" y="43.2">my cat</tspan></tspan></text></g><g id="图层_2" data-name="图层 2"><path d="M303.18,433.87c-2.25,11.89-7.2,23.85-5.9,36.19a12,12,0,0,0,2,6.22c1.57,2,6.55,5.14,1.15,6.07C292.88,483.66,291,475.54,289,470c-3.91-10.84-7.31-23.84-9.88-34.09-3.47-13.81-7-27.67-7.93-41.93-.45-7.17-.6-15,.95-22,1.24-5.6,4.6-10.22,7-15.32,1.76-3.7,3-7.69,2.6-11.82-.36-3.56-1.9-6.82-2.76-10.28-2.11-8.53-2.91-17.33-4.62-25.94-2.28-11.48-8.1-29.86-22.62-30.3-9.81-.29-19.49,4.32-29.34,2.94-16.09-2.24,2.15-28.19,8.38-32.33,17.28-11.48,46.7-3,56.37,14.8,10.42,19.16,8,42.86,11.17,63.77.25,1.59,2.66.91,2.42-.66-3-19.93-1.4-41.15-9.38-60.07-7.31-17.32-26.41-26.24-44.69-25.21-8.84.5-17.66,3.76-23.36,10.79-4.48,5.53-9.19,14.19-9.75,21.51-.87,11.27,11.85,10.47,19.62,9.42,5.65-.77,11.3-2.21,17-2.43,7.58-.3,13.43,5.89,16.68,12.21,4.64,9,5.75,19.62,7.32,29.5.67,4.25,1.36,8.5,2.39,12.67,1.18,4.74,3.36,8.9,2.53,13.93-1,6-5,10.91-7.39,16.32-2.56,5.72-3,12-3.2,18.18-.48,14.8,2.37,29.4,5.86,43.7s7,28.55,11.87,42.36c1.71,4.86,3.62,13.14,9.27,14.85,4.7,1.41,14.2-1.32,8.71-7.41-1.09-1.2-2.52-1.61-3.36-3.05a11.82,11.82,0,0,1-1.12-4.82c-.39-4.66.34-9.48,1.14-14.06,1.22-7,3.43-13.72,4.74-20.66.3-1.57-2.11-2.24-2.41-.66Z"/><path d="M337.42,446.5c-3.09,5.48-2.37,34.25-10.33,33.33-6.92-.8-9.14-12.26-10.25-17.67a146.44,146.44,0,0,1-2.54-25.49c-.05-1.61-2.55-1.62-2.5,0,.27,9.69.95,19.66,3.3,29.12,1.46,5.88,4.15,15,11.1,16.44,6.36,1.3,7.91-5.68,8.9-10.51.92-4.49,1.42-9.06,2.06-13.59.48-3.34.72-7.37,2.42-10.37a1.25,1.25,0,0,0-2.16-1.26Z"/><path d="M385.5,366.88c-6.79-.53-7.52-16.74-7.75-21.75a1.28,1.28,0,0,0-.92-1.21c-6.54-.9-12.73-3.73-18.58-6.68-1.37-.69-2.69-1.46-4.05-2.15-1.84-.94-6.59-2.41-2.64-3.41,6.11-1.54,12.76-1.66,19-2.77A186.09,186.09,0,0,0,391.49,324a98.43,98.43,0,0,0,32.33-16.78c4.76-3.66,9.62-9.26,9.95-15.53.2-3.71-.58-6.88,1.08-10.46a54.58,54.58,0,0,1,4.4-7.24c.56-.83,1.87-3.53,3.13-3.13.86.27,2.14,5.38,2.42,6.27a97.41,97.41,0,0,1,2.8,13.09,78.45,78.45,0,0,0,2.66,12.14c1,3,3.47,4.1,5.78,6.1,9.94,8.67,18.32,20.77,15.41,34.58-1.72,8.12-6.87,15.18-12.58,21s-10,12.73-14.26,19.62c-19.29,31.46-27.95,67.16-23.54,103.92a1.32,1.32,0,0,0,.92,1.21c3.49,1.06,0,1.61-1.73,1.62a11.24,11.24,0,0,1-9.18-3.95c-2.55-3.13-3.08-7.57-4-11.37-.74-3-1.39-6-2.05-9.05l-5.3-24.26c-.35-1.58-2.76-.91-2.42.66,2.38,10.88,4.53,21.84,7.18,32.66,2.31,9.4,5.5,19.19,17.4,17.69,1.91-.24,5.15-1.16,4.58-3.73-.31-1.37-1.67-1.35-2.4-2.22-1.59-1.91-1.22-6.21-1.39-8.73A153.26,153.26,0,0,1,439.42,398a195.84,195.84,0,0,1,9.9-17.14c4.32-6.7,9.18-12.34,14.36-18.36,6.67-7.74,11.7-17.38,10.76-27.86s-7.34-19.33-14.77-26.27c-1.85-1.72-4.42-3.17-6-5.07-2.46-2.9-2.72-8.45-3.35-12.1-1.33-7.7-2.6-15.21-6.21-22.22a1.24,1.24,0,0,0-1.08-.62c-3.41,0-4,1.56-5.91,4.36s-4.33,6.18-5.36,9.61c-1.43,4.74.52,9.51-1.82,14.09-3,5.78-7.94,8.5-12.79,12.3a63.16,63.16,0,0,1-15.25,9,140.68,140.68,0,0,1-23.71,7.12c-9,2-18.38,2.27-27.26,4.41-5.09,1.23-4.6,4.58-.3,6.89a122.34,122.34,0,0,0,18.49,8.45c.81.27,1.63.54,2.45.77.17,0,5.2,1.24,3.71-.2.25.24.12,1.8.15,2.11a73,73,0,0,0,1.3,9.2c1,4.78,2.83,12.42,8.8,12.89,1.6.12,1.6-2.38,0-2.5Z"/><path d="M354.29,428.46c3.31,18.37,1.41,38.61,10,55.74,2.8,5.57,9,12.4,16.15,10.19,3-.92,3.75-3.48,1.47-5.51s-2.18-1.29-1.94-5c.27-4.46.48-8.92.83-13.38.56-7.11.89-18,4.88-24,3.2-4.75,10.85-4.39,15.82-4.14,1.61.08,1.6-2.42,0-2.5-6.09-.31-14.84-.29-18.2,5.89-2.89,5.33-3.67,12.17-4.37,18.1-.46,3.87-.73,7.76-1,11.65-.22,3.49-1.5,8.54-.77,11.89.25,1.16.74,1.33,1.41,2.25s2.61,1.26.35,2.4c-.75.38-2.42,0-3.22-.23-3.89-.91-6.6-4.09-8.5-7.42-4.79-8.41-6.2-18.83-7.4-28.29s-1.44-19-3.12-28.32c-.29-1.59-2.7-.92-2.42.66Z"/><path d="M441.83,327.61c1-4.09,5.58-7.32,9.44-8.49,1.54-.47.88-2.89-.66-2.41-4.69,1.43-9.93,5.28-11.19,10.24a1.25,1.25,0,0,0,2.41.66Z"/><path d="M419.33,342.93a19,19,0,0,0-20,3.55c-1.2,1.08.58,2.84,1.77,1.77a16.5,16.5,0,0,1,17.54-2.91c1.48.61,2.13-1.81.66-2.41Z"/><path d="M428.65,346.21c2.46-1.14,4.45-3.43,7.17-4,1.58-.31.91-2.72-.67-2.41-3,.58-5.09,3-7.77,4.21-1.45.67-.19,2.83,1.27,2.16Z"/><path d="M431.05,344.34c1.81,1.63,5.84,5,5.06,7.89-.47,1.78-2.78,2-4.28,1.69s-2.25,2.14-.66,2.41c2.67.47,6-.05,7.15-2.87,1.7-4.14-2.81-8.47-5.5-10.88-1.2-1.08-3,.69-1.77,1.76Z"/><path d="M437.17,352.33c1.91.48,4.28,1.05,6.06-.11,1.57-1,2-3.07,2.48-4.76a1.25,1.25,0,0,0-2.42-.66c-.24,1-.45,2.57-1.32,3.26-1,.84-3,.14-4.14-.14a1.25,1.25,0,0,0-.66,2.41Z"/><path d="M359.83,327.92c-12.71-2.26-28.45-4.86-37.77-14.74-7.9-8.36-8.1-20.72-7.78-31.53.05-1.61-2.45-1.61-2.5,0-.33,11.24.05,23.86,8,32.72,9.55,10.69,26.06,13.58,39.42,16,1.57.28,2.25-2.12.66-2.41Z"/><path d="M472.42,270.76c6.66,12.61,17.53,21.61,26.33,32.68,12,15.06,22,31.49,33.68,46.79a242.86,242.86,0,0,0,17.91,20.55c3.27,3.42,3.79,6.61,4.45,11.12.41,2.83.88,5.8,2.79,8.06,4.79,5.67,16.09,6.37,18.72,13.75.43,1.21,2.1,8.63,1,9.71-.8.78-4.82-2.16-6.32-2.93-3.32-1.71-11-5.15-13.92-1.1-1.15,1.59-.8,3.94-.57,5.73.4,3,2.08,6.83-2.22,4.81-2.5-1.17-12.1-12.65-13.65-6.87-.41,1.51.58,3.53.64,5.11a24.33,24.33,0,0,1-1.19,8.25c-1,3-4.71,11.71-9.43,9.51-2.94-1.37-2.4-9.46-2.73-12.29q-.67-5.72-1.56-11.39a299,299,0,0,0-12.6-51.06c-5.91-17.17-13.34-34.62-24.48-49.08-3.88-5-7.52-10.34-14.24-11.42s-10.4,6.4-14.4,10.55c-1.12,1.16.65,2.93,1.76,1.77,2.38-2.47,4.31-5.4,6.76-7.78,3.62-3.53,8.63-2,12.1,1.13,5.65,5.16,10.1,12.47,13.87,19,9.19,16,15.8,33.45,20.84,51.18a294.72,294.72,0,0,1,10,52.76c.37,3.87.93,9.58,6.13,9.35s8.61-6.48,10.08-10.73a27.26,27.26,0,0,0,1.32-12.41c-.1-.72-.28-1.42-.37-2.14.16,1.2-1.35-.29-.45.49s1.81,1.46,2.69,2.23c2.8,2.45,6.17,6.19,10,7s4.57-1.92,4.09-5.2c-.23-1.53-1.12-3.78-.72-5.3.83-3.21,4.4-2.39,6.67-1.75,3.56,1,6.37,3.32,9.67,4.82,2.95,1.35,4.55.62,4.69-2.67.23-5.25-.25-11.23-4.5-14.73-3.1-2.55-6.83-4.17-10.32-6.11-4.78-2.66-7-5.38-7.74-10.76-.44-3-.65-6.24-2.2-8.95-2-3.46-5.67-6.12-8.36-9-14.76-15.92-25.9-34.63-38.73-52a231.45,231.45,0,0,0-20-24.24,75,75,0,0,1-13.32-17.64c-.75-1.43-2.91-.16-2.16,1.26Z"/><path d="M463.62,376.24c-5.68,7.17-10.53,14.8-15.61,22.38a93.73,93.73,0,0,1-19.39,20.62c-1.25,1,.52,2.78,1.76,1.77A94.66,94.66,0,0,0,449,401.63c5.49-7.9,10.42-16.06,16.4-23.62,1-1.25-.76-3-1.76-1.77Z"/><path d="M441.25,409.13c1.79,17.63,20.62,30,35.35,36.47,13,5.72,35.08,12.13,46.63,0,7-7.4,5.81-18.72,3.48-27.78a1.26,1.26,0,0,0-2.42.66c2,7.78,3.41,17.55-2,24.37-4.31,5.45-11.65,6.93-18.25,6.88-16.78-.12-34.51-8.29-47-19.18-6.32-5.51-12.42-12.75-13.3-21.4-.16-1.59-2.66-1.6-2.5,0Z"/><path d="M502.42,450.5c-6.34,14.36-23.63,18.93-37.83,20.94s-28.81,1.73-43.09.44c-1.6-.15-1.59,2.35,0,2.5,15.28,1.38,30.89,1.58,46.08-.89,14.13-2.29,30.73-7.52,37-21.73.64-1.46-1.51-2.73-2.16-1.26Z"/><path d="M360.5,468.88c-8.76-.51-17.27,1.81-26,2a1.25,1.25,0,0,0,0,2.5c8.73-.19,17.24-2.51,26-2,1.61.09,1.6-2.41,0-2.5Z"/><path d="M317.5,470.88a124.56,124.56,0,0,0-18-1c-1.6.05-1.61,2.55,0,2.5a124.56,124.56,0,0,1,18,1c1.6.18,1.58-2.33,0-2.5Z"/><path d="M271.5,405.88c-6.42.36-17.73,0-22.58,5.38-3.19,3.52-.66,8,1.69,11.19,8.32,11.3,24.49,22.42,22.93,38.23-.38,3.86-3.68,8.81-.66,12.32,3.42,4,10.91,1.64,14.95.33,1.53-.49.88-2.9-.66-2.41-3,1-8,2.85-11,1.32-3.87-1.94-.88-6.64-.34-9.69a22.66,22.66,0,0,0-.7-10.47c-2.28-7.66-7.62-14.12-12.82-20-3.69-4.17-11.46-10.2-12.3-16.07-1.1-7.68,17.44-7.39,21.53-7.62,1.6-.09,1.61-2.59,0-2.5Z"/><path d="M247.94,417c-5.6,12.44-17.86,17.93-29.95,22.44-9.53,3.55-18.46,7.23-27,12.84-2.1,1.38-9.08,5.25-6.08,8.56,1.36,1.5,4.58,1.33,6.37,1.36,6.74.09,13.55-.95,20.21-1.83,1.57-.21,1.59-2.71,0-2.5s-24.59,3.52-24.82,1.21c-.14-1.37,4.43-3.88,5.28-4.44,3.07-2,6.25-4,9.51-5.78,17-9.08,39.77-10.92,48.63-30.6.65-1.45-1.5-2.72-2.16-1.26Z"/><path d="M262.5,432.88c-4.38.29-8.82,2.75-12.72,4.58-7.16,3.37-14.15,7.13-21.08,11-11.07,6.09-22.38,12.13-33,19-1.59,1-4.34,2.65-4.26,4.87.11,2.68,3.65,2.93,5.63,3.07,12.14.83,25.08-2.19,37-4.11,8.23-1.32,16.45-2.75,24.69-4,5.14-.81,10.51-2,15.74-1.84a1.25,1.25,0,0,0,0-2.5c-9.46-.23-19.41,2.39-28.67,3.93-13.15,2.18-26.34,4.61-39.63,5.76-2.6.22-9.12,1.6-11.47,0-1-.69-.9.12-.13-1.12a7.12,7.12,0,0,1,2.37-1.82c9.24-6.06,19.15-11.31,28.79-16.69,7.16-4,14.36-7.93,21.72-11.56,4.45-2.2,9.93-5.63,15-6,1.6-.11,1.61-2.61,0-2.5Z"/><path d="M322.17,313.92c-35.64,8.51-51.58,49.47-46.45,83.11.93,6.07,3.55,16,9.15,19.18a1.25,1.25,0,0,0,1.26-2.16c-3.61-2.08-5.78-8.71-6.95-12.56a45.47,45.47,0,0,1-1.56-9.84,91.85,91.85,0,0,1,2.46-28.08c5.41-22.35,19.54-41.69,42.75-47.24,1.57-.37.9-2.78-.66-2.41Z"/><path d="M349.83,330.92c-17.64-3-36.35,10.22-47.49,22.58-13,14.41-20.36,34.71-8.92,52.26.88,1.34,3,.09,2.16-1.26-11.07-17-3.38-36.44,9.31-50.08,10.41-11.2,28-23.9,44.28-21.09,1.57.27,2.25-2.13.66-2.41Z"/><path d="M326.52,419.43c3.91,8.11,20.31,21.69,29.61,14.78,1.28-.95,0-3.12-1.26-2.16-8,6-22.85-6.94-26.19-13.88-.7-1.45-2.86-.18-2.16,1.26Z"/><path d="M278.83,365.33c5-.86,9.1.15,12.79,3.68,1.16,1.11,2.93-.65,1.76-1.77-4.34-4.16-9.35-5.33-15.21-4.32-1.58.28-.91,2.69.66,2.41Z"/><path d="M319.42,427.76c6.4,13.42,22.24,25.22,37.08,26.62,1.6.15,1.59-2.35,0-2.5-14-1.31-28.92-12.81-34.92-25.38-.69-1.45-2.85-.19-2.16,1.26Z"/><path d="M345.14,285.12c-1.18,1.55-3.17,4-2.56,6.15.68,2.38,3.95,1.73,5.69,1.32,1.25-.29.72-2.22-.54-1.93-.67.16-3.2.95-3.24-.25a4,4,0,0,1,.66-1.72,20.74,20.74,0,0,1,1.71-2.56c.78-1-1-2-1.72-1Z"/><path d="M348,303.89c.91,2.73,2.79,5.76,6,6s5-2.36,5.95-5c.45-1.21-1.49-1.73-1.92-.53-.64,1.74-2,3.79-4.11,3.48s-3.35-2.65-4-4.48c-.4-1.21-2.33-.69-1.92.53Z"/><path d="M375.87,346.21c4.12,1.81,8.56,2.24,10.72-2.44a18.4,18.4,0,0,0,1.25-7c.06-1.47-.68-6.14-.24-6.94l-1.71.44c2.69,1.2,7,4.37,10.17,3.39,1.69-.52,1.62-1.54,2.29-3,2.52-5.47,8.56-4,13.32-2.86a1.26,1.26,0,0,0,1.54-1.53,14.79,14.79,0,0,0-2.46-6,8.83,8.83,0,0,0-2.72-2.55c-.91-.51-3-.47-3.69-1.08-2.21-2.09-1-9.24,0-11.7a16.52,16.52,0,0,1,6-6.88c6-4.33,19.19-7.73,14.29-17.56l-1.08,1.88c7.72.36,13.34-5.15,12.41-13s-7-10.57-13.73-7.52c-14.19,6.37-28.89,6.86-43.18.69-4.78-2.06-9.3-4.66-14-7-4.06-2-7.8-3.58-11.43-6.36-10.79-8.26-23.42-19.05-29-31.72-.65-1.47-2.8-.2-2.16,1.26,4.34,9.81,13.05,18,20.87,25.05a123.66,123.66,0,0,0,11.3,9.24c3.13,2.22,6.59,3.39,10,5.1,8.6,4.31,17,9.08,26.56,10.76a49.23,49.23,0,0,0,15.7.19,55.7,55.7,0,0,0,9.77-2.38c3.13-1.05,6.52-3.32,9.73-3.87,4.75-.81,7.16,4.06,7.16,8.13,0,5.93-4.32,9.17-10,8.9a1.26,1.26,0,0,0-1.08,1.88c3.72,7.47-8.83,10.91-13.39,14.14-7.87,5.57-9.57,13.54-6.74,22.56a1.28,1.28,0,0,0,1.21.92c4.49-.29,6.62,3.69,7.29,7.58l1.54-1.54c-4.74-1.16-11.15-2.63-14.78,1.69a14.22,14.22,0,0,0-1.39,2.38c-1,1.87-1.42,1.84-3.39,1.21a59.12,59.12,0,0,1-5.62-2.56,1.28,1.28,0,0,0-1.71.44c-1,1.9,0,6.12-.1,8.21-.2,5.49-1.81,10.08-8.21,7.26-1.46-.64-2.73,1.51-1.26,2.16Z"/><path d="M250.73,241.66c-7.41,1.85-16.37,5.89-14.49,15a24.19,24.19,0,0,0,4.28,8.8c.74,1.06,1.63,2,2.34,3.11a7.11,7.11,0,0,1-5.86,11c-1.28,0-1.29,2,0,2a9.74,9.74,0,0,0,9.23-8.19c.46-3.66-1.64-5.7-3.59-8.39-2.17-3-4.54-6.58-4.67-10.4-.25-7.09,7.69-9.66,13.3-11.06a1,1,0,0,0-.54-1.93Z"/><path d="M451.42,171.76c4.36,5.7,7,12,10.14,18.38a180.16,180.16,0,0,0,21,33.6c2.85,3.62,5.71,7.22,8.46,10.91,1.92,2.58,3.44,5.43,6.05,7.32,5.7,4.12,10.82,8.52,15,14.23,7.51,10.24,11.57,22.57,13.4,35,2.21,15.09,1.27,30.56-1.18,45.56-.25,1.57,2.16,2.25,2.42.66,4-24.66,4.46-52.19-7.65-74.82a63.48,63.48,0,0,0-10.54-14.45,60.17,60.17,0,0,0-6.68-5.88,41.93,41.93,0,0,1-8.67-8.92c-9.51-12.74-19.17-24.56-26.55-38.73-4.26-8.17-7.4-16.79-13-24.16-1-1.26-3.14,0-2.16,1.26Z"/><path d="M421.62,199c6.51,6.21,11.24,14.32,15.53,22.14a225.72,225.72,0,0,1,14.55,32.5c1.85,5.15,3.51,10.37,4.87,15.67.63,2.43,1.2,4.88,1.67,7.34.37,1.9.23,5.16,1.05,6.8,2.9,5.78,6.59-.76,7.42-4l-2.09.55c1.5,1.81,6.17,5.82,8.64,3.1,2.31-2.55-1.26-7.06-2.88-8.87V276c3.06-2.68,4.9-7,6.08-10.8,3.68-11.82,1.56-24.79-1.75-36.41a1.26,1.26,0,0,0-2.42.66c3.2,11.23,5.3,23.67,1.75,35.09-1,3.36-2.68,7.3-5.42,9.69a1.27,1.27,0,0,0,0,1.77c1.09,1.23,5.19,7.4.75,4.85a11.68,11.68,0,0,1-3-2.62,1.26,1.26,0,0,0-2.09.56c-.23.91-1,5.25-2.67,3.76-.42-.38-.55-4.29-.65-4.81a126.58,126.58,0,0,0-3-12.91,216.09,216.09,0,0,0-9.5-26.16c-6.21-14.34-13.56-30.48-25.07-41.44-1.16-1.11-2.93.66-1.76,1.77Z"/><path d="M378.05,160.34c-1.57,3-3.1,8.57,0,11.17a4.78,4.78,0,0,0,5.1.42c2.22-1.15,2.47-4.1,3.9-6l-2.33-.63c.47,3.56,2.51,10.29,7.7,8.3,4-1.54,5.09-7.81,3.49-11.29-.66-1.46-2.82-.2-2.15,1.26.87,1.91.34,6-1.62,7.31-3.43,2.23-4.66-3.58-4.92-5.58a1.26,1.26,0,0,0-2.33-.63,13.15,13.15,0,0,0-1.61,3c-.81,1.78-2.84,3.43-4.15,1.1-1.11-2,.11-5.37,1.06-7.19.74-1.42-1.42-2.69-2.16-1.26Z"/><path class="cls-1" d="M398.18,144.07c10.87-8.37,42.5-4.38,31.56,9.81-4.86,6.31-40.12-2.06-31.56-9.81"/><path d="M398.81,145.15c5.84-4.22,14.2-4.85,21.13-3.78,5.15.8,15.89,5.53,8.62,12-3.9,3.44-13.1,1.2-17.46.18-2.43-.58-16.33-4.27-12-8.56a1.25,1.25,0,0,0-1.77-1.77c-9.4,9.4,19.88,14.19,24.47,14.17,5.44,0,10.62-1.76,11.41-8,.78-6.06-5.81-9-10.7-10.07-8-1.76-18.11-1.24-24.92,3.68-1.29.93-.05,3.1,1.26,2.16Z"/><path class="cls-1" d="M340.82,147.18c-3.39-10.07,37.44-11.07,35.46-.63-2.35,12.34-30.62,8.75-35.46,1"/><path d="M342,146.85c-2.34-8.61,27.05-6.75,31.3-3.6,2.67,2,1.78,4.85-.54,6.91-2.82,2.49-7.17,3.07-10.77,3.19-6.12.2-16.25-.88-20.11-6.43-.91-1.31-3.08-.06-2.16,1.26,3.8,5.46,12.05,7.07,18.21,7.56s15.31-.13,18.65-6.39c6.8-12.73-20.46-11.72-26.27-10.68-4.25.77-12.33,2.92-10.72,8.85a1.25,1.25,0,0,0,2.41-.67Z"/><path class="cls-21" d="M433,195.63s21.58-8.48,18.4-29.66c0,0-4.47-28.2-15.79-45.74,0,0,16.39-15.6.39-34.6,0,0-15.83,0-25.07,20.3,0,0-25.51-3.33-34.93-3.3,0,0-4-27-15-27,0,0-16,4-13,35,0,0-39,45-22,81,0,0,13,17,61,4C402,191.63,419,201.63,433,195.63Z"/><path class="cls-21" d="M283.58,415.23s-3.67,3.72-1.15,5.86c0,0,3.13.83,4.07-3.21,0,0,2.6,5.38,4.63,3.78,0,0,1.93-.7-.78-5.17,0,0,2.82,3.56,3.94,1.84,0,0,1.63-2.11-1.79-4.36,0,0,3.93,1.85,4.25-.89,0,0,1.13-1.71-3.83-2.75,0,0,.11-.91,1.93-.7,0,0,3.24-.08,3.46-1.9,0,0,.21-1.82-5.36-1.55"/><path class="cls-21" d="M328.23,419.45s3.07-3.21.9-5c0,0-2.67-.67-3.42,2.78,0,0-2.28-4.54-4-3.15,0,0-1.63.61.73,4.39,0,0-2.44-3-3.38-1.53,0,0-1.36,1.82,1.59,3.69,0,0-3.38-1.52-3.62.81,0,0-.93,1.47,3.3,2.3,0,0-.08.77-1.64.61,0,0-2.75.11-2.91,1.66,0,0-.16,1.56,4.57,1.26"/><path class="cls-21" d="M326,193.63c-17,16-35,43-24.27,79,0,0-4.73,13,3.52,6,0,0-.25,5,2.75,5,0,0,3-1,3-6,0,0,4,9,6,1,0,0-.67-1.16-1-7-1-17.53,1.25-54.5,17-74"/><path d="M317.36,265.27c2.39-5.64,10.06-6.52,14.92-3.63a12,12,0,0,1,5.23,6.84c1.21,4.25-.46,7.38-4,9.8-7.06,4.86-12-.78-16.16-6-1-1.25-2.76.53-1.76,1.77,2.74,3.44,5.45,7.18,9.93,8.43,5.64,1.58,13.15-2.86,14.63-8.49,3.64-13.83-19.2-23.61-25-9.94-.62,1.46,1.53,2.74,2.15,1.26Z"/><path d="M365.69,257.65c-7.89,5.9-10.56,19.3,1.72,21.66,7.48,1.44,18.9-2.94,21.3-10.85a1.26,1.26,0,0,0-2.42-.66c-1.46,4.82-9.26,9-14,9.48-3.49.37-8.13-.79-10.09-3.88-3.13-4.92.87-10.69,4.75-13.59,1.27-1,0-3.13-1.26-2.16Z"/><path d="M330.13,248.05c-2.9-1.37-6.14-2.08-9.09-.47a9.46,9.46,0,0,0-2.54,2.08c-.31.36-.58.74-.88,1.11-.09.11-.48.52-.24.36-1.36.86-.11,3,1.26,2.16,1-.62,1.55-1.9,2.42-2.67,2.31-2.06,5.18-1.65,7.81-.41,1.45.68,2.72-1.48,1.26-2.16Z"/><path d="M293.5,483.38a1.25,1.25,0,0,0,0-2.5,1.25,1.25,0,0,0,0,2.5Z"/><path d="M304.39,435.45a1.25,1.25,0,0,0,0-2.5,1.25,1.25,0,0,0,0,2.5Z"/><path d="M379.5,472.38a212,212,0,0,1,25.67,1.95c1.57.23,2.25-2.18.66-2.41a218.74,218.74,0,0,0-26.33-2,1.25,1.25,0,0,0,0,2.5Z"/><path d="M414.67,149.88a1.25,1.25,0,0,0,0-2.5,1.25,1.25,0,0,0,0,2.5Z"/><path d="M359.33,151.21a1.25,1.25,0,0,0,0-2.5,1.25,1.25,0,0,0,0,2.5Z"/><path d="M426.33,269.83c0,1.24.21,4.1-1.68,4s-1.93,2.94,0,3a4.36,4.36,0,0,0,3.79-2.15,8.57,8.57,0,0,0,.89-4.89c-.06-1.92-3.06-1.93-3,0Z"/><path class="cls-12" d="M273.6,255.33l-2-.67c-1.22-.4-1.75,1.53-.53,1.93l2,.67C274.29,257.67,274.82,255.74,273.6,255.33Z"/><path class="cls-12" d="M265.5,258.76l-2,1.34c-1.07.71-.07,2.44,1,1.72.67-.44,1.34-.88,2-1.33C267.57,259.78,266.57,258.05,265.5,258.76Z"/><path class="cls-12" d="M262.66,269.23l-6,.75c-1.26.15-1.28,2.16,0,2l6-.75C263.92,271.07,263.93,269.07,262.66,269.23Z"/><path class="cls-12" d="M265.33,277.29h-.66a1,1,0,0,0,0,2h.66A1,1,0,0,0,265.33,277.29Z"/><path class="cls-12" d="M391.72,374.65a23.6,23.6,0,0,0-4.56,4.14c-.41.49.29,1.2.71.71a22.5,22.5,0,0,1,4.35-4C392.75,375.15,392.25,374.28,391.72,374.65Z"/><path class="cls-12" d="M395.57,378.88l-1,1.5c-.36.53.51,1,.86.5l1-1.5C396.79,378.84,395.92,378.34,395.57,378.88Z"/><path class="cls-12" d="M402.57,381.38a7.32,7.32,0,0,0-1.05,4.75c.07.63,1.07.63,1,0a6.47,6.47,0,0,1,.91-4.25C403.77,381.33,402.91,380.83,402.57,381.38Z"/><path class="cls-12" d="M412.94,388.37a5.06,5.06,0,0,1-.43-2.74c.06-.64-.94-.64-1,0a6.17,6.17,0,0,0,.56,3.25C412.34,389.46,413.21,389,412.94,388.37Z"/><path class="cls-12" d="M423.19,387.79l-1.49-1c-.53-.37-1,.5-.5.86l1.48,1C423.22,389,423.72,388.15,423.19,387.79Z"/><path class="cls-12" d="M432.48,390.5c-.33-1.17-.66-2.34-1-3.5a.5.5,0,0,0-1,.26c.33,1.17.66,2.33,1,3.5A.5.5,0,0,0,432.48,390.5Z"/><path class="cls-12" d="M439.85,386.77l-.5-.5c-.45-.45-1.16.26-.7.71l.5.5C439.6,387.94,440.31,387.23,439.85,386.77Z"/></g></svg>