<svg xmlns="http://www.w3.org/2000/svg" width="20" height="16" viewBox="0 0 20 16">
  <path fill="#9B9B9B" d="M18.3990625,0.903413462 L1.29300481,0.903413462 C0.478461538,0.903413462 0.173052885,1.10716346 0.173052885,2.02336538 L0.173052885,13.9364904 C0.173052885,14.8527404 0.478581731,15.0564423 1.29300481,15.0564423 L18.2971635,15.0564423 C19.1117067,15.0564423 19.4171154,14.8526923 19.4171154,13.9364904 L19.4171154,2.02336538 C19.5189183,1.10711538 19.2133654,0.903413462 18.398774,0.903413462 L18.3990625,0.903413462 Z M16.8718029,2.02353365 C14.3263221,4.36545673 10.4569231,8.33649038 10.0497115,8.64189904 C9.94790865,8.74370192 9.84596154,8.74370192 9.64245192,8.64189904 C9.13346154,8.23463942 4.95865385,4.26358173 2.61680288,2.02353365 L16.8718029,2.02353365 Z M1.29324519,13.9367308 L1.29324519,2.43098558 L7.40247596,8.23473558 C8.01338942,8.84564904 8.42081731,9.15098558 8.72605769,9.45658654 C9.13331731,9.66033654 9.43889423,9.76211538 9.84600962,9.76211538 C10.253125,9.76211538 10.5588462,9.6603125 10.9659615,9.45658654 L10.9659615,9.35478365 C11.576875,8.94752404 13.5114423,6.91115385 18.3987981,2.43098558 L18.3987981,13.9367308 L1.29274038,13.9367308 L1.29324519,13.9367308 Z"/>
</svg>
