<svg xmlns="http://www.w3.org/2000/svg" width="22" height="21" viewBox="0 0 22 21">
  <g fill="none" stroke="#9B9B9B">
    <path stroke-width=".78" d="M10.9999756,7 C9.86664225,7 8.93330892,7.86666667 8.93330892,9 C8.93330892,10.0666667 9.86664225,10.9333333 10.9999756,11 C12.1333089,11 13.0666423,10.0666667 13.0666423,9 C13.0666423,7.86666667 12.1333089,7 10.9999756,7 Z"/>
    <path stroke-width=".86" d="M13,3.11111111 L13.2222222,2 C13.2962963,1.40740741 12.9259259,0.888888889 12.2592593,0.740740741 C11.7407407,0.666666667 11.2222222,0.962962963 11.0740741,1.48148148 C11.0740741,1.55555556 11.0740741,1.55555556 11,1.62962963 L10.7777778,3.03703704 C3.88888889,3.48148148 0.703703704,8.88888889 0.703703704,8.88888889 C0.703703704,8.88888889 2.85185185,13.8518519 8.7037037,14.8148148 L7.96296296,18.7407407 C7.88888889,19.3333333 8.25925926,19.8518519 8.85185185,19.9259259 C9.44444444,20 9.96296296,19.6296296 10.1111111,19.037037 L10.8518519,14.8888889 L11.0740741,14.8888889 C17.6666667,14.6666667 21.4444444,9.03703704 21.4444444,9.03703704 C21.4444444,9.03703704 19.1481481,3.77777778 13,3.11111111 Z M11.0740741,13.037037 L10.4814815,13.037037 C5.51851852,12.8888889 3.88888889,8.88888889 3.88888889,8.88888889 C3.88888889,8.88888889 6.18518519,5.18518519 11.0740741,4.96296296 L11.2962963,4.96296296 C16.3333333,4.88888889 18.1851852,9.03703704 18.1851852,9.03703704 C18.1851852,9.03703704 15.5925926,12.8888889 11.0740741,13.037037 Z"/>
  </g>
</svg>
