<svg xmlns="http://www.w3.org/2000/svg" width="24" height="16" viewBox="0 0 24 16">
  <path fill="none" stroke="#9B9B9B" stroke-width=".8" d="M918.147232,744 C918.790342,744 919.383981,744.04947 919.928151,744.19788 C920.47232,744.29682 920.91755,744.4947 921.31331,744.742049 C921.709069,744.989399 922.005889,745.335689 922.203769,745.780919 C922.401649,746.226148 922.500589,746.770318 922.500589,747.363958 C922.500589,748.056537 922.352179,748.650177 922.005889,749.095406 C921.709069,749.540636 921.21437,749.936396 920.62073,750.233216 C921.46172,750.480565 922.104829,750.925795 922.500589,751.519435 C922.896349,752.113074 923.143698,752.855124 923.143698,753.696113 C923.143698,754.388693 922.995289,754.982332 922.747939,755.477032 C922.500589,755.971731 922.104829,756.416961 921.6596,756.713781 C921.21437,757.010601 920.6702,757.257951 920.076561,757.40636 C919.482921,757.55477 918.889282,757.65371 918.295642,757.65371 L911.666667,757.65371 L911.666667,744 L918.147232,744 Z M917.751472,749.540636 C918.295642,749.540636 918.740872,749.392226 919.087161,749.144876 C919.433451,748.897527 919.581861,748.452297 919.581861,747.908127 C919.581861,747.611307 919.532391,747.314488 919.433451,747.116608 C919.334511,746.918728 919.186101,746.770318 918.988221,746.621908 C918.790342,746.522968 918.592462,746.424028 918.345112,746.374558 C918.097762,746.325088 917.850412,746.325088 917.553592,746.325088 L914.684335,746.325088 L914.684335,749.540636 L917.751472,749.540636 Z M917.899882,755.378092 C918.196702,755.378092 918.493522,755.328622 918.740872,755.279152 C918.988221,755.229682 919.235571,755.130742 919.433451,754.982332 C919.631331,754.833922 919.779741,754.685512 919.928151,754.438163 C920.027091,754.190813 920.126031,753.893993 920.126031,753.547703 C920.126031,752.855124 919.928151,752.360424 919.532391,752.014134 C919.136631,751.717314 918.592462,751.568905 917.949352,751.568905 L914.684335,751.568905 L914.684335,755.378092 L917.899882,755.378092 Z M927.447585,755.328622 C927.843345,755.724382 928.436985,755.922261 929.228504,755.922261 C929.772674,755.922261 930.267373,755.773852 930.663133,755.526502 C931.058893,755.229682 931.306243,754.932862 931.405183,754.636042 L933.829211,754.636042 C933.433451,755.823322 932.839812,756.664311 932.048292,757.208481 C931.256773,757.70318 930.316843,758 929.179034,758 C928.387515,758 927.694935,757.85159 927.051826,757.60424 C926.408716,757.35689 925.914016,757.010601 925.468787,756.515901 C925.023557,756.070671 924.677267,755.526502 924.479388,754.883392 C924.232038,754.240283 924.133098,753.547703 924.133098,752.756184 C924.133098,752.014134 924.232038,751.321555 924.479388,750.678445 C924.726737,750.035336 925.073027,749.491166 925.518257,748.996466 C925.963486,748.551237 926.507656,748.155477 927.101296,747.908127 C927.744405,747.660777 928.387515,747.512367 929.179034,747.512367 C930.020024,747.512367 930.762073,747.660777 931.405183,748.007067 C932.048292,748.353357 932.542992,748.749117 932.938751,749.342756 C933.334511,749.886926 933.631331,750.530035 933.829211,751.222615 C933.928151,751.915194 933.977621,752.607774 933.928151,753.399293 L926.755006,753.399293 C926.755006,754.190813 927.051826,754.932862 927.447585,755.328622 Z M930.564193,750.134276 C930.217903,749.787986 929.673734,749.590106 929.030624,749.590106 C928.585395,749.590106 928.239105,749.689046 927.942285,749.837456 C927.645465,749.985866 927.447585,750.183746 927.249706,750.381625 C927.051826,750.579505 926.952886,750.826855 926.903416,751.074205 C926.853946,751.321555 926.804476,751.519435 926.804476,751.717314 L931.256773,751.717314 C931.157833,750.975265 930.910483,750.480565 930.564193,750.134276 Z M926.210836,744.939929 L931.751472,744.939929 L931.751472,746.275618 L926.210836,746.275618 L926.210836,744.939929 Z" transform="translate(-911 -743)"/>
</svg>
