<svg xmlns="http://www.w3.org/2000/svg" width="39" height="12" viewBox="0 0 39 12">
  <g fill="none" stroke="#979797" stroke-width=".8" transform="translate(1 1)">
    <path d="M36.7676234,6.47999394 C36.5299656,6.76872758 36.1972445,7.20182804 35.484271,7.24995032 L32.6323766,7.1055835 L32.6323766,3.3039239 C32.6323766,1.95650025 32.8700344,1.57152207 33.1552239,1.3309107 C33.4879449,1.09029933 33.915729,0.897810239 34.1058553,0.224098413 C34.1058553,0.17597614 34.1058553,0.079731593 34.1058553,0.0316093197 C34.0583238,-0.0165129536 34.0107922,-0.0165129536 33.9632606,0.079731593 C33.7256028,0.416587506 33.5354765,0.560954326 33.0601607,0.464709779 C31.6342135,0.127853866 30.0656716,-0.1127575 30.0656716,2.5820898 L30.0656716,2.87082344 C30.0656716,3.06331254 29.9230769,3.15955708 29.7804822,2.87082344 C29.7804822,2.82270117 29.7329506,2.7745789 29.7329506,2.7745789 C29.4002296,2.0527448 28.9724455,1.47527752 28.2594719,0.994054786 C27.4989667,0.512832053 26.6433984,0.224098413 25.6452354,0.224098413 C24.6470723,0.224098413 23.6964409,0.512832053 22.9359357,1.09029933 C22.46062,1.47527752 22.127899,2.00462253 21.9377727,2.43772298 C21.8902411,2.53396753 21.795178,2.67833435 21.7476464,2.53396753 C21.6050517,2.19711162 21.9853042,1.57152207 22.127899,1.09029933 C22.1754305,0.945932513 22.1754305,0.849687966 22.127899,0.705321146 C22.0803674,0.416587506 21.9377727,0.560954326 21.9377727,0.657198873 C21.795178,1.28278843 21.0822044,0.897810239 20.7494834,0.705321146 C20.1791045,0.368465233 19.561194,0.17597614 18.8482204,0.17597614 C17.5173364,0.17597614 16.3290471,0.705321146 15.4259472,1.61964434 C14.5703789,2.48584526 14,3.73702436 14,5.08444802 C14,6.43187167 14.4753157,7.68305078 15.330884,8.59737397 C16.1864524,9.46357489 17.4698048,9.94479762 18.8006889,9.94479762 C19.7988519,9.94479762 21.9377727,9.31920807 21.7001148,8.01990669 C21.7001148,7.92366214 21.6525832,7.73117305 21.6525832,7.68305078 C21.7001148,7.58680623 21.7476464,7.6349285 21.795178,7.68305078 C21.8902411,7.8274176 21.9853042,8.01990669 22.0803674,8.16427351 C22.6982778,9.12671897 24.124225,9.94479762 25.6452354,9.94479762 C26.4532721,9.94479762 27.2613088,9.75230853 27.9267509,9.36733034 C28.7347876,8.93422988 29.3051665,8.21239578 29.6854191,7.39431714 C29.6854191,7.34619486 29.7329506,7.34619486 29.7329506,7.29807259 C29.8280138,7.05746122 30.0181401,7.00933895 30.0181401,7.34619486 L30.0181401,9.27108579 C30.0181401,9.84855307 30.5409874,10.0410422 31.3965557,9.99291989 L35.1515499,9.99291989 C36.1021814,9.99291989 36.5299656,9.65606398 36.6250287,8.93422988 C36.7200918,8.3567626 36.6250287,7.92366214 36.6725603,7.53868396 C36.7200918,6.96121668 36.9102181,6.67248304 36.9102181,6.62436076 C37.1003444,6.43187167 36.9577497,6.33562712 36.7676234,6.47999394 Z M20.2266361,6.52811622 C19.8463835,6.9130944 19.3710677,7.1055835 18.8006889,7.1055835 C18.23031,7.1055835 17.7549943,6.86497213 17.3747417,6.52811622 C16.9944891,6.14313803 16.8043628,5.6619153 16.8043628,5.08444802 C16.8043628,4.50698074 17.0420207,4.025758 17.3747417,3.64077982 C17.7549943,3.25580163 18.23031,3.06331254 18.8006889,3.06331254 C19.3710677,3.06331254 19.8463835,3.3039239 20.2266361,3.64077982 C20.6068886,4.025758 20.7970149,4.50698074 20.7970149,5.08444802 C20.8445465,5.6619153 20.6068886,6.1912603 20.2266361,6.52811622 Z M27.1187141,6.52811622 C26.7384615,6.9130944 26.2631458,7.1055835 25.6927669,7.1055835 C25.1223881,7.1055835 24.6470723,6.86497213 24.2668197,6.52811622 C23.8865672,6.14313803 23.6964409,5.6619153 23.6964409,5.08444802 C23.6964409,4.50698074 23.9340987,4.025758 24.2668197,3.64077982 C24.6470723,3.25580163 25.1223881,3.06331254 25.6927669,3.06331254 C26.2631458,3.06331254 26.7384615,3.3039239 27.1187141,3.64077982 C27.4989667,4.025758 27.689093,4.50698074 27.689093,5.08444802 C27.689093,5.6619153 27.4989667,6.1912603 27.1187141,6.52811622 Z"/>
    <path d="M14.5498901,8.12782364 C13.9583854,7.69578294 13.7119251,7.50376486 14.0076774,6.87970607 C14.1062616,6.68768798 13.9583854,6.59167894 13.8105092,6.68768798 C13.1204204,7.21573772 12.3317475,7.35975129 11.4937825,7.07172416 C9.22634793,6.35165633 9.96572879,2.7993217 12.3810396,3.08734883 C13.3175886,3.18335788 14.1062616,2.94333527 14.5498901,2.03124935 C14.7963504,1.55120413 14.8949345,1.07115891 14.9935186,0.159072993 C15.0428106,-0.0329450955 14.7963504,-0.0329450955 14.7470583,0.0630639485 C14.5991821,0.447100124 14.451306,0.543109168 14.2541377,0.59111369 C13.8105092,0.687122734 13.3668807,0.495104646 12.8739601,0.399095602 C12.1345793,0.303086558 11.5430746,0.303086558 10.8529858,0.495104646 C10.0150208,0.735127256 9.27563999,1.11916343 8.68413531,1.6952177 C7.79687829,2.55929909 7.25466566,3.80741666 7.25466566,5.15154328 C7.25466566,5.72759754 7.30395772,6.25564728 7.45183389,6.7356925 C7.45183389,6.7356925 7.45183389,6.7356925 7.45183389,6.7356925 C7.59971006,7.31174677 7.50112595,7.26374225 7.05749743,7.31174677 L3.65634551,7.31174677 L6.71245304,4.04743927 C7.59971006,3.18335788 7.59971006,2.75131718 7.59971006,1.64721317 C7.59971006,1.31118152 7.550418,0.927145344 7.64900212,0.59111369 C7.69829417,0.447100124 7.59971006,0.399095602 7.45183389,0.447100124 C7.10678949,0.543109168 6.51528481,0.543109168 5.52944367,0.543109168 L1.09315856,0.543109168 C0.846698277,0.543109168 0.748114163,0.399095602 0.846698277,0.207077514 C0.846698277,0.159072993 0.846698277,0.0150594265 0.748114163,0.0150594265 C0.107317425,0.303086558 -0.0405587456,1.59920865 0.00873331117,2.41528553 C0.00873331117,2.84732622 0.255193595,3.08734883 0.600237993,3.08734883 L4.09997403,3.08734883 L0.501653879,6.83170155 C0.255193595,7.11972868 0.00873331117,7.50376486 0.00873331117,8.0318146 L0.00873331117,9.08791408 C0.00873331117,9.5679593 0.304485652,9.85598643 0.846698277,9.95199548 L6.86032921,9.95199548 C7.45183389,9.85598643 7.84617034,9.5679593 7.79687829,8.89589599 L7.79687829,8.17582816 C7.84617034,7.98381008 7.99404651,7.98381008 8.09263063,8.07981912 C8.2405068,8.27183721 8.33909091,8.41585077 8.53625914,8.55986434 C9.42351616,9.42394574 10.7051096,10 12.0852872,10 C12.5289157,10 13.0711284,9.90399096 13.613341,9.66396835 C14.1555536,9.42394574 14.6977662,9.03990956 14.7963504,8.60786886 C14.8456424,8.4638553 14.7470583,8.31984173 14.5498901,8.12782364 Z"/>
  </g>
</svg>
